<?xml version="1.0"?>
<svg width="40" height="40" xmlns="http://www.w3.org/2000/svg" xmlns:svg="http://www.w3.org/2000/svg">
 <defs>
  <clipPath id="clip0">
   <rect fill="white" height="40" id="svg_1" width="40"/>
  </clipPath>
 </defs>
 <g class="layer">
  <title>Layer 1</title>
  <g clip-path="url(#clip0)" id="svg_2">
   <path d="m0,11.17c0,-1.56 0.86,-2.98 2.22,-3.67l13.94,-7.08c1.11,-0.56 2.42,-0.56 3.53,0l13.94,7.08c1.36,0.69 2.22,2.11 2.22,3.67l0,17.66c0,1.56 -0.86,2.98 -2.22,3.67l-13.94,7.08c-1.11,0.56 -2.42,0.56 -3.53,0l-13.94,-7.08c-1.36,-0.69 -2.22,-2.11 -2.22,-3.67l0,-17.66z" fill="#003366" id="svg_3"/>
   <path d="m61.74,28l0,-17.45l-3.65,0l0,10.97l-0.16,0l-7.5,-10.97l-3.22,0l0,17.45l3.67,0l0,-10.99l0.13,0l7.56,10.99l3.17,0z" fill="#3D3D3D" id="svg_4"/>
   <path d="m85.51,17.64l0,-2.73l-2.46,0l0,-3.14l-3.61,0l0,3.14l-1.78,0l0,2.73l1.78,0l0,6.81c-0.01,1.29 0.39,2.25 1.17,2.88c0.81,0.62 1.86,0.91 3.17,0.85c0.47,-0.02 0.87,-0.07 1.19,-0.15c0.33,-0.07 0.58,-0.14 0.77,-0.19l-0.58,-2.7c-0.09,0.01 -0.22,0.04 -0.39,0.07c-0.17,0.03 -0.34,0.05 -0.51,0.05c-0.36,0 -0.66,-0.09 -0.89,-0.27c-0.22,-0.17 -0.34,-0.51 -0.34,-1.01l0,-6.34l2.46,0l0.02,0z" fill="#3D3D3D" id="svg_5"/>
   <path d="m87.86,14.91l0,13.09l3.62,0l0,-13.09l-3.62,0z" fill="#3D3D3D" id="svg_6"/>
   <path d="m88.31,12.68c0.38,0.36 0.84,0.54 1.37,0.54c0.54,0 0.99,-0.18 1.38,-0.54c0.39,-0.36 0.58,-0.79 0.58,-1.3c0,-0.5 -0.19,-0.94 -0.58,-1.29c-0.39,-0.36 -0.85,-0.54 -1.38,-0.54c-0.54,0 -0.99,0.18 -1.37,0.54c-0.39,0.35 -0.58,0.79 -0.58,1.29c0,0.51 0.19,0.94 0.58,1.3z" fill="#3D3D3D" id="svg_7"/>
   <path d="m112.64,28l0,-7.57c0.01,-0.84 0.24,-1.5 0.69,-1.97c0.46,-0.47 1.05,-0.7 1.78,-0.7c0.73,0 1.3,0.22 1.71,0.68c0.42,0.45 0.62,1.07 0.61,1.87l0,7.69l3.62,0l0,-8.34c0,-1.52 -0.41,-2.73 -1.23,-3.6c-0.82,-0.88 -1.91,-1.32 -3.26,-1.32c-0.97,0 -1.79,0.22 -2.47,0.67c-0.68,0.45 -1.16,1.05 -1.45,1.81l-0.16,0l0,-2.31l-3.44,0l0,13.09l3.61,0l-0.01,0z" fill="#3D3D3D" id="svg_8"/>
   <path d="m131.44,18.85l3.3,-0.21c-0.16,-1.2 -0.71,-2.15 -1.66,-2.85c-0.95,-0.7 -2.24,-1.05 -3.89,-1.05c-1.66,0 -3,0.36 -4.02,1.09c-1,0.73 -1.5,1.72 -1.5,2.98c-0.01,1.99 1.24,3.24 3.77,3.74l2.26,0.46c1.09,0.22 1.65,0.65 1.67,1.3c-0.01,0.39 -0.21,0.7 -0.6,0.95c-0.39,0.25 -0.9,0.38 -1.52,0.38c-0.65,0 -1.17,-0.14 -1.59,-0.41c-0.41,-0.27 -0.67,-0.68 -0.78,-1.21l-3.56,0.19c0.17,1.25 0.77,2.24 1.79,2.96c1.02,0.72 2.4,1.09 4.13,1.09c1.12,0 2.12,-0.18 2.99,-0.54c0.87,-0.36 1.55,-0.87 2.05,-1.52c0.51,-0.65 0.76,-1.4 0.76,-2.26c0,-1.84 -1.26,-3.03 -3.77,-3.54l-2.36,-0.48c-0.6,-0.13 -1.03,-0.3 -1.28,-0.52c-0.25,-0.22 -0.38,-0.48 -0.37,-0.79c-0.01,-0.39 0.18,-0.71 0.57,-0.94c0.39,-0.24 0.87,-0.36 1.42,-0.36c0.63,0 1.13,0.15 1.5,0.45c0.37,0.31 0.59,0.67 0.69,1.09z" fill="#3D3D3D" id="svg_9"/>
   <path d="m147.63,14.27c0.63,0.46 1.05,1.1 1.28,1.92l3.73,0c-0.16,-1.16 -0.57,-2.17 -1.25,-3.05c-0.68,-0.89 -1.55,-1.58 -2.62,-2.08c-1.05,-0.5 -2.25,-0.75 -3.56,-0.75c-1.52,0 -2.91,0.35 -4.13,1.06c-1.23,0.71 -2.2,1.74 -2.93,3.08c-0.72,1.34 -1.07,2.95 -1.07,4.84c0,1.84 0.35,3.43 1.02,4.77c0.7,1.34 1.65,2.37 2.89,3.1c1.23,0.72 2.67,1.08 4.3,1.08c1.46,0 2.76,-0.3 3.89,-0.89c1.12,-0.59 2.02,-1.44 2.66,-2.54c0.65,-1.11 0.98,-2.42 0.98,-3.95l0,-2.2l-7.27,0l0,2.78l3.73,0c-0.02,1.08 -0.39,1.94 -1.08,2.58c-0.7,0.64 -1.66,0.95 -2.88,0.95c-1.38,0 -2.48,-0.49 -3.28,-1.49c-0.82,-0.99 -1.22,-2.4 -1.22,-4.22c0,-1.82 0.42,-3.22 1.23,-4.21c0.83,-0.98 1.9,-1.48 3.23,-1.48c0.95,0 1.73,0.23 2.36,0.7l-0.01,0z" fill="#3D3D3D" id="svg_10"/>
   <path d="m159.12,28l0,-17.45l-3.62,0l0,17.45l3.62,0z" fill="#3D3D3D" id="svg_11"/>
   <path d="m176.67,14.91l0,13.09l3.61,0l0,-7.41c0,-0.8 0.26,-1.46 0.79,-1.96c0.52,-0.5 1.18,-0.75 1.98,-0.75c0.25,0 0.53,0.01 0.83,0.05c0.3,0.04 0.54,0.08 0.71,0.14l0,-3.22c-0.36,-0.09 -0.74,-0.13 -1.13,-0.13c-0.74,0 -1.38,0.21 -1.94,0.63c-0.56,0.42 -0.96,1.03 -1.19,1.84l-0.14,0l0,-2.28l-3.5,0l-0.02,0z" fill="#3D3D3D" id="svg_12"/>
   <path d="m187.79,32.78c0.41,0.07 0.84,0.1 1.29,0.1c1.34,0 2.4,-0.31 3.16,-0.95c0.77,-0.63 1.32,-1.47 1.69,-2.52l5.06,-14.48l-3.83,-0.02l-2.73,9.61l-0.13,0l-2.7,-9.61l-3.81,0l4.68,13.47l-0.21,0.55c-0.26,0.59 -0.6,0.93 -1.04,1.02c-0.44,0.1 -0.98,0.05 -1.61,-0.15l-0.82,2.72c0.26,0.11 0.59,0.19 0.99,0.26l0.01,0z" fill="#3D3D3D" id="svg_13"/>
   <path clip-rule="evenodd" d="m100.27,28.26c-1.32,0 -2.46,-0.29 -3.42,-0.85c-0.96,-0.57 -1.69,-1.36 -2.22,-2.37c-0.52,-1.01 -0.78,-2.19 -0.78,-3.53c0,-1.36 0.26,-2.54 0.78,-3.55c0.53,-1.02 1.26,-1.81 2.22,-2.37c0.97,-0.57 2.1,-0.85 3.42,-0.85c1.31,0 2.46,0.28 3.41,0.85c0.96,0.56 1.7,1.35 2.22,2.37c0.53,1.01 0.79,2.19 0.79,3.55c0,1.34 -0.26,2.52 -0.79,3.53c-0.52,1.01 -1.26,1.8 -2.22,2.37c-0.96,0.56 -2.1,0.85 -3.41,0.85zm2.04,-3.94c-0.46,0.75 -1.13,1.12 -2.02,1.12c-0.92,0 -1.6,-0.37 -2.07,-1.12c-0.46,-0.75 -0.7,-1.7 -0.7,-2.84c0,-1.14 0.24,-2.09 0.7,-2.84c0.47,-0.75 1.15,-1.13 2.07,-1.13c0.89,0 1.56,0.38 2.02,1.13c0.47,0.75 0.7,1.7 0.7,2.84c0,1.14 -0.23,2.09 -0.7,2.84z" fill="#3D3D3D" fill-rule="evenodd" id="svg_14"/>
   <path clip-rule="evenodd" d="m167.91,28.26c-1.32,0 -2.46,-0.29 -3.42,-0.85c-0.96,-0.57 -1.69,-1.36 -2.22,-2.37c-0.52,-1.01 -0.78,-2.19 -0.78,-3.53c0,-1.36 0.26,-2.54 0.78,-3.55c0.53,-1.02 1.26,-1.81 2.22,-2.37c0.97,-0.57 2.1,-0.85 3.42,-0.85c1.31,0 2.46,0.28 3.41,0.85c0.96,0.56 1.7,1.35 2.22,2.37c0.52,1.01 0.78,2.19 0.78,3.55c0,1.34 -0.26,2.52 -0.78,3.53c-0.52,1.01 -1.26,1.8 -2.22,2.37c-0.96,0.56 -2.1,0.85 -3.41,0.85zm2.04,-3.94c-0.46,0.75 -1.13,1.12 -2.03,1.12c-0.91,0 -1.59,-0.37 -2.06,-1.12c-0.47,-0.75 -0.7,-1.7 -0.7,-2.84c0,-1.14 0.23,-2.09 0.7,-2.84c0.47,-0.75 1.15,-1.13 2.06,-1.13c0.9,0 1.57,0.38 2.03,1.13c0.47,0.75 0.7,1.7 0.7,2.84c0,1.14 -0.23,2.09 -0.7,2.84z" fill="#3D3D3D" fill-rule="evenodd" id="svg_15"/>
   <path clip-rule="evenodd" d="m68.43,28.25c-1.24,0 -2.28,-0.33 -3.09,-0.98c-0.83,-0.66 -1.23,-1.63 -1.23,-2.93c0,-0.97 0.23,-1.74 0.69,-2.3c0.46,-0.55 1.05,-0.96 1.8,-1.22c0.75,-0.26 1.55,-0.43 2.41,-0.51c1.13,-0.11 1.94,-0.23 2.43,-0.36c0.49,-0.12 0.74,-0.39 0.74,-0.81l0,-0.05c0,-0.54 -0.18,-0.96 -0.52,-1.26c-0.33,-0.29 -0.81,-0.44 -1.42,-0.44c-0.65,0 -1.16,0.14 -1.55,0.43c-0.39,0.28 -0.64,0.64 -0.77,1.08l-3.34,-0.27c0.25,-1.2 0.87,-2.14 1.85,-2.84c0.99,-0.7 2.27,-1.05 3.83,-1.05c0.97,0 1.87,0.15 2.72,0.46c0.84,0.31 1.52,0.79 2.03,1.44c0.53,0.65 0.79,1.49 0.79,2.53l0,8.83l-3.43,0l0,-1.82l-0.1,0c-0.32,0.61 -0.8,1.11 -1.42,1.5c-0.63,0.38 -1.42,0.57 -2.39,0.57l-0.03,0zm2.98,-3.2c-0.51,0.46 -1.15,0.69 -1.95,0.69c-0.56,0 -1.01,-0.13 -1.37,-0.38c-0.36,-0.26 -0.54,-0.64 -0.54,-1.14c0,-0.51 0.2,-0.9 0.58,-1.16c0.39,-0.27 0.91,-0.45 1.54,-0.54c0.26,-0.04 0.56,-0.09 0.9,-0.14c0.34,-0.05 0.66,-0.12 0.96,-0.19c0.3,-0.08 0.52,-0.16 0.66,-0.26l0,1.39c0,0.69 -0.25,1.27 -0.77,1.73l-0.01,0z" fill="#3D3D3D" fill-rule="evenodd" id="svg_16"/>
   <path clip-rule="evenodd" d="m18.81,4.95c-0.56,-0.28 -1.2,-0.28 -1.76,0l-11.94,6.07c-1.35,0.68 -0.44,2.72 0.53,4.86c0.24,0.52 0.48,1.05 0.69,1.56c0.41,1.01 2.52,1.87 4.68,2.75c2.17,0.89 4.14,1.33 4.94,2.88c0.55,1.06 0.51,1.68 0.46,2.37c-0.08,1.09 0,1.9 0.54,2.75c0.17,0.26 0.45,0.55 0.72,0.85c0.6,0.66 1.09,1.68 0.89,2.56c-0.41,1.72 -1.48,4.25 1.36,2.9l1.14,-0.58c2.13,-1.09 4.45,-6.12 6.22,-7.75c0.43,-0.4 0.84,-0.82 1.16,-1.26c0.35,-0.48 0.34,-1.15 -0.05,-1.6c-1.95,-2.29 -4.5,-1.48 -6.96,-1.21c-1.49,0.16 -2.8,0.3 -3.49,-0.05c-0.36,-0.19 -0.73,-0.36 -1.09,-0.53c-1.64,-0.76 -3.12,-1.45 -2.67,-2.93c0.48,-1.55 3.46,-2.94 4.27,-0.66c0.43,1.21 2.13,2.36 2.32,1.15c0.06,-0.41 -0.08,-0.93 -0.23,-1.5c-0.3,-1.1 -0.65,-2.41 0.33,-3.56c0.72,-0.85 1.47,-1.3 2.27,-1.78c0.83,-0.49 1.69,-1.01 2.62,-2.03c0.19,-0.2 1.04,-1.21 0,-1.74l-6.93,-3.52l-0.02,0z" fill="white" fill-rule="evenodd" id="svg_17"/>
  </g>
 </g>
</svg>