<?xml version="1.0" standalone="no"?>
<!DOCTYPE svg PUBLIC "-//W3C//DTD SVG 20010904//EN"
 "http://www.w3.org/TR/2001/REC-SVG-20010904/DTD/svg10.dtd">
<svg version="1.0" xmlns="http://www.w3.org/2000/svg"
 width="1024.000000pt" height="1024.000000pt" viewBox="0 0 1024.000000 1024.000000"
 preserveAspectRatio="xMidYMid meet">
<metadata>
Created by potrace 1.14, written by Peter Selinger 2001-2017
</metadata>
<g transform="translate(0.000000,1024.000000) scale(0.100000,-0.100000)"
fill="#000000" stroke="none">
<path d="M4545 8641 c-297 -296 -543 -537 -547 -535 -4 3 -9 0 -13 -6 -4 -6
-11 -8 -16 -5 -5 4 -9 1 -9 -5 0 -6 -4 -9 -9 -6 -5 4 -12 0 -14 -6 -3 -7 -6
-3 -6 10 -1 16 3 21 12 16 9 -6 9 -5 0 8 -7 8 -9 19 -5 23 4 5 1 5 -6 1 -7 -4
-10 -11 -8 -15 3 -3 -4 -7 -14 -7 -18 0 -18 1 -2 20 17 19 17 19 -11 1 -15
-10 -27 -14 -25 -9 1 5 -4 20 -11 33 -11 19 -15 21 -23 10 -6 -10 -7 -7 -3 10
5 17 4 22 -6 19 -8 -3 -13 -14 -11 -25 2 -11 -4 -23 -12 -26 -11 -4 -18 8 -27
46 -7 29 -14 54 -14 57 -1 3 -7 19 -14 35 -7 17 -14 40 -14 52 -1 11 -5 19 -8
17 -12 -7 -31 54 -22 70 8 14 34 42 346 364 86 90 155 168 151 173 -3 5 -1 8
4 7 11 -4 106 84 110 102 1 6 -2 9 -7 6 -5 -4 -11 -3 -14 1 -2 5 -2 2 -1 -4 3
-12 -8 -17 -28 -14 -4 0 -5 -9 -3 -20 3 -15 0 -19 -11 -15 -8 3 -13 2 -10 -2
3 -5 -1 -9 -8 -9 -8 0 -12 6 -9 13 4 11 -2 12 -36 5 -2 -1 3 -9 10 -18 12 -15
12 -16 -1 -8 -8 6 -19 10 -25 10 -5 0 -9 8 -9 18 1 9 -2 14 -7 11 -5 -3 -7
-17 -4 -32 l4 -27 -19 25 c-17 20 -19 21 -14 5 l7 -20 -17 20 -18 20 7 -20 c5
-15 3 -17 -5 -8 -9 8 -9 16 -1 30 7 13 10 14 11 4 0 -11 4 -9 15 5 15 19 15
19 8 -1 -6 -19 -6 -19 14 -2 24 21 33 22 33 1 0 -12 4 -14 13 -7 6 6 22 9 34
8 14 -1 19 3 16 12 -3 7 2 13 10 13 9 0 18 3 20 8 3 4 -14 7 -38 7 -25 1 -41
-3 -39 -10 3 -6 -20 -10 -61 -10 -47 0 -65 -4 -65 -13 0 -7 4 -11 9 -8 5 4 6
-4 3 -16 -4 -17 -7 -19 -10 -7 -4 22 -61 23 -86 1 -11 -9 -16 -12 -13 -6 9 15
-20 27 -29 13 -3 -6 -12 -8 -20 -5 -9 3 -14 -1 -14 -12 0 -12 -3 -13 -8 -5 -6
10 -16 10 -45 1 -20 -6 -34 -14 -32 -18 2 -4 -6 -6 -18 -5 -12 1 -26 0 -32 -4
-10 -6 -16 -7 -36 -10 -5 0 -7 -5 -4 -11 3 -5 0 -7 -8 -4 -29 11 -347 -124
-347 -147 0 -4 4 -10 9 -13 17 -11 31 -65 19 -72 -6 -4 -8 -3 -5 2 3 6 -3 16
-14 22 -19 12 -19 11 -8 -10 l12 -23 -24 20 c-18 15 -20 16 -10 3 7 -10 10
-18 7 -18 -4 0 0 -7 9 -16 11 -11 13 -20 5 -28 -5 -7 -6 -17 -2 -21 4 -5 0 -4
-8 1 -8 4 -25 9 -37 10 -18 1 -20 -2 -13 -22 6 -14 5 -26 -1 -29 -5 -4 -6 -12
-3 -18 5 -8 3 -8 -6 0 -11 10 -17 9 -32 -4 -10 -9 -18 -12 -18 -7 0 5 -4 3 -9
-5 -5 -8 -19 -16 -32 -18 -19 -3 -20 -1 -9 12 11 13 15 13 23 3 6 -9 7 -8 3 5
-3 10 -2 15 3 12 5 -3 12 -1 16 5 4 6 11 8 16 5 5 -4 6 2 2 11 -4 12 -8 14
-11 5 -3 -8 -8 -7 -18 6 -13 17 -14 17 -8 0 4 -12 2 -17 -7 -15 -7 2 -13 -2
-14 -9 0 -7 -6 -18 -14 -25 -12 -11 -13 -10 -7 6 5 16 4 17 -8 6 -14 -11 -14
-14 -1 -27 19 -18 20 -29 1 -14 -10 8 -16 9 -21 1 -3 -5 -12 -10 -18 -10 -7 0
-6 4 3 10 8 5 10 10 4 10 -6 0 -14 -3 -18 -7 -4 -5 -13 -8 -19 -8 -5 0 -12 -7
-14 -15 -4 -13 -3 -13 6 0 9 13 11 13 11 -2 0 -21 37 -19 51 3 5 8 9 9 9 3 0
-15 -25 -36 -33 -27 -4 3 -7 2 -7 -3 0 -5 17 -25 37 -44 47 -45 148 -180 178
-240 55 -109 70 -184 70 -350 -1 -149 -2 -159 -34 -251 -18 -52 -47 -121 -64
-153 -38 -67 -121 -165 -193 -225 -58 -49 -165 -112 -176 -105 -5 3 -8 0 -8
-7 0 -6 -8 -9 -20 -6 -11 3 -18 2 -15 -3 7 -12 -39 -21 -74 -14 -27 6 -30 9
-19 23 12 14 11 14 -4 2 -24 -18 -23 -31 2 -31 11 0 20 -4 20 -9 0 -6 -9 -9
-20 -8 -11 1 -20 4 -20 7 0 4 -15 5 -32 3 -27 -3 -30 -2 -15 7 9 6 17 16 17
21 0 6 -4 8 -9 5 -4 -3 -6 6 -3 21 3 17 1 24 -6 19 -6 -3 -14 -1 -18 5 -4 7
-3 9 4 5 6 -3 13 -2 17 4 4 6 10 8 15 5 5 -3 13 3 19 12 6 10 11 13 11 7 0 -6
-7 -17 -15 -24 -13 -11 -18 -80 -5 -80 12 0 28 50 18 57 -6 3 -8 1 -4 -5 3 -6
1 -14 -5 -17 -7 -5 -9 1 -7 16 1 13 8 24 15 24 6 0 15 3 19 7 4 4 13 3 20 -3
12 -10 12 -7 5 30 -1 2 -8 -2 -16 -9 -20 -16 -19 -1 1 30 l16 25 -20 -22 c-11
-12 -22 -19 -26 -16 -3 4 1 15 11 25 9 10 13 18 8 18 -4 0 -1 8 6 18 12 15 12
16 -2 5 -9 -7 -20 -9 -25 -5 -4 4 -3 0 4 -9 10 -13 9 -19 -5 -30 -14 -12 -16
-12 -11 1 3 8 -1 29 -8 45 -7 17 -13 24 -14 17 0 -7 5 -22 10 -33 7 -13 7 -19
1 -19 -6 0 -13 11 -17 25 -3 14 -10 25 -15 25 -12 0 7 -38 33 -66 11 -13 15
-24 10 -28 -5 -3 -15 1 -22 9 -10 12 -16 13 -29 3 -15 -12 -15 -11 0 7 17 20
15 50 -2 40 -5 -4 -6 2 -2 12 6 16 5 16 -10 4 -15 -12 -17 -12 -11 3 3 9 10
16 16 16 5 0 8 8 6 18 -2 9 3 16 10 14 6 -1 12 3 12 8 0 6 11 23 25 38 14 15
23 33 20 40 -3 7 -1 10 4 7 6 -3 14 2 19 11 5 9 13 16 18 17 5 1 8 7 6 14 -2
7 3 12 10 11 6 -2 13 7 14 20 5 65 6 68 14 37 l8 -30 1 28 c1 16 5 26 11 22 6
-4 7 -11 4 -17 -4 -7 -2 -8 5 -4 8 6 9 12 2 20 -6 7 -8 16 -4 19 3 4 -2 9 -11
13 -15 6 -24 27 -8 22 4 -2 7 2 7 7 0 6 -3 9 -7 7 -10 -3 -10 12 -1 21 3 4 11
3 17 -3 8 -6 12 -2 13 13 1 12 -1 17 -5 12 -4 -6 -15 -11 -25 -13 -17 -3 -17
-2 -1 23 14 21 19 23 32 13 11 -9 9 -4 -3 14 -22 30 -30 34 -41 16 -4 -6 -3
-8 4 -4 6 3 13 2 16 -3 9 -14 -8 -21 -24 -11 -11 7 -11 14 -3 33 10 21 9 28
-7 42 -18 16 -20 16 -35 1 -15 -15 -15 -16 0 -16 12 0 16 -6 12 -20 -3 -11 -2
-18 3 -15 4 3 10 -3 13 -14 3 -11 -4 -23 -17 -31 -17 -10 -19 -10 -8 1 15 16
16 33 2 24 -6 -4 -9 -1 -8 7 2 7 -3 12 -10 10 -8 -1 -11 2 -8 7 4 5 2 12 -4
16 -13 8 29 64 48 64 24 1 -7 40 -152 191 -40 41 -76 80 -79 87 -4 6 31 51 85
108 95 99 145 161 100 121 -12 -11 -22 -14 -22 -8 0 6 -48 61 -107 123 -60 62
-107 118 -107 125 1 7 -4 10 -11 8 -20 -8 -28 15 -13 34 11 15 11 15 -3 5 -13
-11 -20 -8 -42 15 -15 16 -24 31 -20 35 26 27 -138 -28 -239 -80 -66 -33 -109
-65 -170 -125 -46 -45 -86 -82 -90 -82 -3 -1 -10 -5 -15 -10 -5 -5 -3 -6 5 -2
20 12 14 -1 -23 -49 -32 -43 -80 -132 -77 -146 1 -4 -9 -2 -23 5 -13 6 -22 12
-20 15 2 2 -2 10 -10 18 -8 8 -15 27 -15 42 0 16 -5 28 -13 28 -17 0 -10 -45
9 -68 11 -12 11 -18 1 -30 -6 -8 -11 -12 -10 -10 6 10 -19 41 -28 35 -8 -4 -7
0 0 14 8 16 7 21 -5 26 -13 5 -14 9 -3 22 10 12 10 15 -2 12 -8 -2 -13 3 -11
12 2 8 0 12 -4 7 -4 -4 -19 3 -33 15 -14 13 -23 19 -19 15 3 -5 0 -23 -7 -41
-11 -26 -11 -36 -2 -47 10 -11 9 -11 -5 0 -13 9 -14 19 -8 42 10 34 4 39 -11
7 -8 -19 -9 -17 -4 12 l5 35 -20 -32 c-19 -31 -31 -42 -29 -25 1 4 0 10 -1 15
-1 4 -3 13 -4 20 -1 6 -7 11 -14 10 -6 -2 -9 4 -6 12 8 19 -23 32 -39 16 -8
-8 -7 -11 6 -11 9 0 16 -3 16 -7 -1 -5 0 -10 1 -13 7 -19 7 -39 -1 -34 -5 3
-6 10 -3 16 5 7 2 8 -5 4 -7 -5 -10 -15 -6 -23 5 -13 3 -14 -11 -3 -13 12 -17
11 -25 -1 -18 -28 3 56 22 87 11 17 19 35 19 39 0 14 -29 -17 -36 -38 -3 -12
-12 -35 -19 -52 -66 -152 -89 -280 -89 -485 1 -129 5 -187 22 -265 24 -111 80
-265 118 -320 13 -20 24 -38 24 -41 0 -3 -13 -22 -29 -42 -49 -62 -167 -290
-221 -424 -27 -70 -50 -132 -50 -139 0 -6 -16 -50 -35 -98 -69 -172 -150 -498
-190 -765 -83 -548 -42 -1135 115 -1654 74 -245 186 -530 268 -684 16 -29 51
-93 77 -143 62 -117 234 -375 329 -494 340 -425 737 -772 1168 -1020 640 -368
1334 -562 2068 -578 l255 -6 -75 78 -74 77 636 632 c349 347 659 652 687 679
29 26 49 52 46 57 -3 6 0 10 7 11 8 0 6 3 -4 7 -9 4 -27 17 -40 29 -13 12 -60
57 -105 100 -79 74 -94 93 -74 93 5 0 55 47 112 105 l104 104 113 -111 c89
-86 116 -108 123 -97 26 38 29 48 17 55 -7 5 -8 3 -3 -6 5 -8 4 -11 -3 -6 -6
4 -9 13 -6 21 5 11 11 12 24 5 16 -9 18 -7 15 11 -2 12 3 28 11 37 13 12 13
16 2 23 -8 5 -9 9 -2 9 6 0 18 -8 25 -18 8 -9 13 -16 12 -13 -1 2 4 16 12 32
18 33 19 49 4 49 -5 0 -8 -4 -4 -9 3 -5 1 -12 -4 -15 -5 -4 -12 -2 -15 3 -7
10 20 35 31 28 10 -5 43 29 36 37 -4 3 -1 6 6 6 7 0 19 7 27 15 14 13 14 15 0
15 -8 0 -18 4 -21 10 -4 6 1 7 11 3 13 -5 15 -3 9 8 -8 12 -6 12 8 1 14 -12
16 -11 12 7 -2 13 1 18 9 15 9 -4 13 3 11 20 -2 16 1 23 9 20 7 -3 13 1 13 8
0 7 12 47 26 88 22 65 35 145 37 214 0 20 0 20 14 1 8 -11 12 -24 9 -29 -4 -5
-1 -6 6 -1 9 5 10 10 2 18 -6 6 -11 20 -10 32 0 19 0 19 9 -1 13 -33 28 -37
47 -15 9 11 21 17 26 14 6 -3 7 -1 3 6 -6 9 -11 9 -23 -1 -21 -17 -40 -18 -40
-3 0 7 7 12 16 10 18 -3 83 54 75 66 -3 5 2 6 11 2 12 -4 13 -8 5 -13 -8 -5
-7 -9 3 -13 16 -6 17 9 4 31 -5 6 -4 12 0 12 8 0 13 31 16 88 0 12 12 16 31
13 5 -1 4 4 -3 13 -9 11 -9 16 0 22 8 4 9 3 5 -4 -4 -7 -3 -12 2 -12 6 0 13 7
16 16 4 9 9 14 13 11 3 -4 13 -1 21 6 13 9 14 9 8 0 -4 -7 -3 -13 2 -13 5 0
12 9 15 20 3 13 11 18 27 15 19 -4 20 -2 8 12 -11 14 -11 16 3 11 11 -4 20 1
28 18 6 13 15 24 21 24 5 0 10 6 10 14 0 8 4 17 9 20 5 4 7 -3 4 -14 -4 -15
-2 -19 10 -14 8 3 18 0 23 -7 4 -7 3 -10 -4 -5 -6 3 -4 -7 4 -23 8 -16 19 -83
25 -148 38 -422 -95 -848 -370 -1188 -69 -85 -557 -585 -1008 -1032 -184 -183
-328 -333 -321 -333 28 0 328 79 453 120 520 169 996 431 1370 754 104 89 385
365 423 414 l26 34 -84 82 c-46 46 -87 93 -92 106 -11 30 10 71 45 88 43 21
76 2 158 -89 39 -44 74 -79 79 -79 8 0 127 153 202 260 120 172 296 496 388
717 109 260 254 733 232 755 -4 4 -312 8 -684 8 -570 0 -677 3 -681 15 -7 16
16 38 29 27 4 -4 2 2 -6 12 -10 13 -10 17 -2 12 7 -4 12 -2 12 6 0 10 3 9 11
-2 9 -12 10 -11 6 7 -3 13 0 21 6 20 10 -2 12 2 16 36 1 8 4 8 11 -3 6 -10 4
-20 -6 -31 -7 -8 -14 -19 -14 -24 0 -5 11 5 23 23 13 17 27 29 31 25 4 -4 4 1
0 11 -5 12 -9 14 -14 6 -5 -8 -9 -7 -13 4 -4 9 -1 15 5 13 7 -1 13 4 14 11 1
6 3 15 4 20 1 4 2 11 1 15 -1 5 3 6 9 2 6 -3 7 -11 4 -17 -5 -8 -1 -9 10 -5
12 5 16 3 14 -5 -3 -7 -10 -13 -15 -13 -21 0 -24 -12 -6 -26 9 -8 14 -9 10 -3
-7 12 16 38 25 29 2 -3 4 5 3 18 -1 12 -7 22 -13 22 -7 0 -12 3 -12 8 0 4 0 9
0 12 0 3 9 1 20 -5 11 -6 20 -7 19 -3 -4 25 2 43 13 37 7 -4 8 -3 4 4 -10 17
-16 15 -25 -10 l-8 -22 -5 22 c-4 13 -2 20 5 19 6 -1 11 5 12 13 0 8 9 16 20
17 l20 3 -20 -9 c-16 -8 -16 -10 -4 -10 9 -1 23 7 30 16 8 10 9 14 2 10 -21
-13 -10 32 12 51 l20 17 -20 -25 c-12 -15 -14 -20 -4 -12 9 6 18 9 21 6 4 -3
5 8 4 25 -2 24 1 28 11 19 7 -6 13 -9 14 -7 8 43 8 53 0 39 -6 -8 -13 -12 -16
-8 -11 11 25 37 43 31 9 -3 14 -3 10 2 -4 4 -2 15 4 24 7 9 9 13 4 9 -5 -4
-15 0 -23 8 -9 8 -22 13 -30 10 -9 -4 -12 -2 -7 7 6 9 4 9 -8 -1 -12 -10 -60
-12 -205 -9 -103 3 -198 7 -211 10 -12 3 -20 2 -17 -3 6 -10 -76 -7 -93 4 -7
4 -17 4 -23 1 -6 -4 -9 0 -7 8 2 9 -1 16 -7 16 -5 1 -10 -3 -10 -8 0 -5 -4
-13 -9 -18 -5 -5 -6 -3 -2 5 5 8 0 12 -15 12 -25 0 -20 7 179 209 l112 115
181 -179 c109 -109 183 -175 187 -169 6 11 58 14 290 18 39 0 72 4 72 8 0 5
-12 8 -27 9 l-28 1 25 8 c14 4 20 8 14 9 -6 1 -16 13 -23 28 -11 24 -10 25 4
13 14 -12 15 -10 6 12 -12 31 4 58 35 60 11 1 21 7 22 13 0 5 3 21 7 35 4 17
1 14 -9 -8 -9 -18 -20 -31 -26 -27 -5 3 -10 8 -10 11 0 3 4 3 9 -1 11 -6 25
30 17 43 -8 13 28 11 37 -2 5 -7 7 -6 6 4 -3 34 1 51 13 44 6 -4 8 -3 5 3 -3
5 -2 23 3 39 l10 29 -4 -28 c-2 -15 0 -29 3 -32 13 -7 11 59 -1 67 -9 6 -7 8
7 6 12 -2 19 2 17 10 -1 8 2 11 7 8 14 -9 21 20 8 34 -9 10 -9 11 2 5 11 -6
13 -4 8 11 -7 19 -7 19 8 0 13 -18 12 -23 -11 -53 -14 -18 -23 -39 -21 -46 3
-7 6 -4 6 6 1 10 6 15 11 12 6 -4 7 -11 4 -17 -4 -7 -2 -8 5 -4 9 6 9 11 1 21
-7 8 -7 15 -1 19 5 3 12 0 15 -6 3 -7 3 -2 -1 12 -5 22 -4 23 10 12 10 -9 17
-10 22 -2 4 6 3 9 -2 8 -4 -2 -9 2 -11 7 -1 6 4 10 10 10 7 0 16 14 19 30 4
19 7 23 8 10 1 -12 4 -16 9 -9 4 6 14 10 23 9 9 -2 16 3 16 11 0 10 -4 11 -13
3 -8 -7 -14 -7 -19 1 -6 10 -5 11 14 14 5 0 13 4 16 8 4 4 16 3 26 -2 14 -8
20 -6 28 7 5 10 8 20 8 23 -1 3 7 16 17 30 10 14 16 17 13 8 -3 -9 0 -18 6
-21 8 -3 12 5 11 22 -1 22 -5 26 -30 24 -16 0 -23 1 -16 4 6 2 10 8 8 11 -2 4
6 7 19 7 13 0 23 -4 22 -10 -1 -5 14 -10 33 -11 43 -1 80 -12 80 -24 0 -5 10
-12 23 -16 36 -11 117 -72 195 -148 39 -39 72 -66 72 -61 0 6 -20 45 -44 87
-146 258 -406 458 -693 535 -88 24 -116 27 -273 27 -147 0 -189 -3 -262 -22
-254 -63 -376 -143 -693 -451 -71 -69 -133 -125 -137 -124 -4 2 -8 -3 -8 -10
0 -7 -8 -3 -17 8 -12 16 -14 16 -10 3 3 -10 2 -20 -3 -23 -6 -4 -10 0 -10 7 0
11 -2 10 -9 0 -7 -11 -9 -10 -15 3 -3 9 -10 14 -15 10 -14 -8 -32 30 -21 41 6
6 1 10 -12 11 -16 2 -19 0 -10 -6 10 -6 8 -10 -9 -14 -19 -5 -21 -8 -9 -22 13
-16 15 -16 20 1 6 16 7 15 12 -4 9 -35 9 -37 -7 -37 -8 0 -14 3 -12 6 1 3 -5
14 -13 23 -8 10 -15 28 -17 39 -2 18 -1 19 7 7 6 -9 10 -10 10 -3 0 6 -5 15
-10 18 -8 5 -7 12 2 23 9 11 9 13 1 9 -14 -8 -37 26 -25 38 4 3 0 5 -8 3 -9
-2 -14 5 -15 19 0 12 -3 24 -6 27 -13 13 -3 -43 11 -59 9 -11 10 -19 3 -23 -5
-4 -9 -15 -7 -25 1 -9 -2 -14 -8 -11 -5 3 -7 9 -4 12 3 3 1 11 -6 19 -6 8 -7
13 -2 11 5 -2 9 2 9 7 0 6 -3 9 -6 8 -4 -1 -6 6 -6 15 0 53 -3 67 -12 52 -6
-8 -7 -18 -4 -24 3 -5 1 -6 -4 -3 -6 4 -8 18 -6 32 3 13 9 23 13 20 13 -8 5
24 -10 38 -10 9 -11 9 -6 0 4 -8 2 -13 -6 -13 -10 0 -9 -3 2 -11 13 -9 13 -10
0 -6 -15 4 -15 39 0 45 5 2 7 9 4 17 -3 7 -1 16 5 20 8 4 8 12 0 27 -7 13 -7
18 -1 14 6 -3 14 -2 17 4 4 6 3 10 -2 9 -29 -5 -36 2 -15 17 12 8 22 19 22 23
0 16 -44 4 -69 -19 -14 -13 -48 -44 -76 -69 -58 -52 -383 -362 -485 -463 -42
-42 -74 -66 -81 -62 -8 5 -9 3 -4 -5 4 -7 -1 -20 -14 -32 -22 -20 -43 -27 -23
-7 7 7 12 16 12 21 0 9 -15 -5 -40 -37 -14 -18 -13 -19 3 -13 25 9 21 2 -10
-18 -16 -10 -23 -12 -16 -5 16 17 -2 52 -24 48 -9 -2 -17 3 -19 10 -1 7 0 8 2
3 6 -12 34 -3 34 11 0 5 -6 6 -12 2 -10 -6 -10 -4 -2 7 12 17 12 29 -1 49 -8
13 -7 13 8 1 9 -7 15 -17 12 -21 -3 -4 2 -10 10 -14 8 -3 17 0 21 6 4 7 3 8
-4 4 -8 -5 -11 1 -10 18 2 20 5 23 20 15 10 -6 15 -15 12 -21 -4 -6 -3 -8 3
-5 6 4 9 21 8 39 -1 18 7 48 16 67 10 19 16 38 13 43 -10 15 -22 -2 -18 -25 2
-12 1 -15 -2 -7 -4 8 -11 21 -17 28 -6 7 -6 12 -1 11 16 -4 44 13 38 23 -3 5
-13 4 -22 -4 -12 -9 -11 -6 2 10 20 23 32 30 21 12 -3 -5 -1 -10 6 -10 7 0 9
8 6 21 -4 15 -2 17 6 10 14 -11 15 37 2 60 -8 12 -6 12 8 0 9 -7 15 -17 12
-20 -2 -4 2 -8 9 -8 7 0 13 6 13 13 0 7 -3 11 -7 9 -3 -2 -12 5 -19 17 -7 11
-8 17 -2 13 6 -3 11 1 11 10 0 9 -4 14 -8 11 -5 -3 -9 1 -9 9 0 12 3 12 14 3
8 -6 12 -19 10 -28 -2 -9 1 -17 8 -17 7 0 11 7 8 15 -3 8 0 18 8 24 11 8 11 9
-2 5 -8 -3 -20 3 -26 12 -9 14 -8 18 3 18 7 0 11 -3 9 -7 -2 -4 2 -7 10 -7 8
0 13 3 10 5 -3 3 1 12 8 21 11 14 10 15 -7 1 -18 -14 -18 -13 -11 10 4 14 12
31 18 39 14 17 17 60 5 67 -5 3 -5 11 1 18 14 16 7 51 -10 52 -8 0 -28 -14
-44 -30 -17 -17 -48 -46 -70 -64 -64 -54 -333 -310 -414 -394 -41 -43 -79 -78
-84 -78 -5 0 -53 46 -107 103 -54 56 -111 109 -126 117 -16 8 -37 21 -47 29
-11 10 -21 11 -25 5 -10 -14 -31 -11 -42 6 -9 13 -10 13 -10 0 0 -13 -1 -13
-11 0 -7 11 -9 7 -5 -17 4 -32 4 -32 -20 -16 -24 15 -24 16 -7 37 18 21 18 21
-2 5 -36 -29 -45 -32 -38 -12 5 14 0 13 -22 -7 -16 -14 -25 -18 -21 -10 5 9 2
8 -7 -2 -8 -10 -18 -14 -22 -10 -5 4 -5 -1 -2 -11 4 -11 3 -16 -3 -12 -12 7
-189 -162 -200 -190 -6 -17 -20 -7 -109 80 -57 55 -107 108 -112 117 -7 13 17
43 123 148 72 73 127 135 121 138 -17 12 -22 39 -7 39 7 0 10 -5 7 -11 -4 -8
-2 -8 5 -1 6 6 9 21 5 35 -6 22 -7 23 -15 4 -7 -15 -8 -13 -4 9 2 15 -1 30 -5
33 -5 3 -9 10 -9 16 0 6 7 5 18 -3 15 -12 16 -12 5 2 -7 9 -10 19 -6 22 3 4 1
13 -6 20 -13 17 -4 50 12 40 6 -3 7 -1 3 5 -10 17 -14 15 -32 -19 -11 -23 -13
-34 -5 -42 8 -8 11 -7 11 3 0 7 2 11 5 8 3 -3 -2 -18 -10 -34 -16 -28 -16 -28
-13 -4 2 15 -2 24 -9 23 -7 -2 -10 3 -7 11 3 8 1 17 -5 21 -18 11 -12 24 9 20
11 -2 20 0 20 6 0 5 -9 9 -21 9 -13 0 -18 4 -13 12 5 7 3 8 -5 4 -7 -5 -10
-10 -7 -13 8 -8 -13 -43 -25 -43 -6 0 -7 6 -3 13 4 6 -18 -12 -49 -42 -31 -30
-53 -59 -50 -64 3 -6 1 -7 -5 -3 -11 6 -26 -10 -27 -29 -1 -5 -6 -9 -12 -8 -5
1 -41 -30 -78 -70 -38 -40 -154 -160 -258 -267 -174 -179 -219 -222 -306 -289
-17 -13 -28 -28 -24 -34 3 -6 1 -7 -6 -3 -6 4 -34 -6 -61 -23 -33 -20 -50 -26
-54 -18 -2 7 -5 5 -5 -4 -1 -9 6 -20 15 -23 8 -3 12 -2 9 4 -9 14 9 12 23 -2
7 -7 12 -8 12 -4 0 5 6 3 14 -3 10 -9 17 -7 27 6 13 15 12 16 -9 11 -12 -4
-20 -2 -16 3 3 5 12 9 20 9 8 0 12 5 9 10 -4 7 -13 7 -26 0 -27 -15 -24 -5 6
14 17 11 24 13 23 4 -2 -7 3 -13 10 -14 6 -1 16 -2 21 -3 6 0 9 -10 8 -20 -1
-14 -5 -17 -13 -11 -6 6 -14 7 -17 3 -4 -3 1 -12 10 -18 18 -14 46 2 35 19 -3
5 2 6 12 3 10 -4 20 -7 22 -7 3 0 3 -4 0 -8 -3 -5 1 -9 8 -9 8 0 11 9 8 22 -2
15 1 22 12 22 9 0 16 -4 16 -8 0 -5 7 -6 16 -2 9 3 14 13 11 23 -4 17 7 21 28
9 6 -3 15 -5 20 -4 14 1 52 24 41 25 -5 0 0 8 11 17 11 10 33 42 49 71 15 28
32 52 36 52 13 0 4 -24 -12 -32 -11 -6 -10 -7 5 -5 11 1 20 7 20 12 2 42 46
65 66 34 7 -12 9 -12 9 0 0 8 3 12 6 9 3 -4 1 -17 -6 -30 l-11 -23 20 24 c23
26 27 21 9 -12 -10 -20 -10 -21 5 -8 14 11 17 11 17 0 0 -11 2 -11 10 1 9 14
15 6 10 -15 -1 -5 8 -1 19 9 12 11 21 16 21 11 0 -4 7 -2 15 5 8 7 15 9 15 5
0 -4 7 -2 15 5 8 7 12 17 8 23 -3 5 -1 7 5 3 5 -3 13 0 15 6 3 8 6 6 6 -5 1
-10 5 -16 9 -13 4 2 8 -4 8 -15 0 -10 -3 -19 -7 -19 -3 0 -6 -12 -7 -27 0 -16
-12 -65 -25 -110 -13 -45 -20 -80 -16 -77 4 2 15 -6 23 -18 9 -12 16 -17 16
-11 0 7 -5 15 -10 18 -6 4 -7 12 -3 18 4 7 11 0 19 -18 6 -15 18 -29 27 -31
13 -2 14 3 5 28 -8 22 -13 26 -19 16 -9 -14 -9 -13 -13 32 -1 8 -8 14 -15 12
-7 -1 -10 2 -6 8 5 8 11 8 19 1 7 -6 17 -7 21 -3 5 4 6 2 2 -3 -6 -12 14 -53
27 -55 17 -3 34 53 22 70 -9 13 -9 13 6 2 10 -8 14 -20 11 -30 -6 -15 -5 -15
10 -3 9 7 17 10 17 5 0 -5 5 -2 10 6 8 11 9 8 6 -13 -3 -15 -1 -25 4 -22 5 3
13 -3 19 -12 8 -14 11 -15 11 -3 0 12 3 11 11 -3 10 -18 11 -18 31 0 21 18 21
18 4 -9 -13 -20 -14 -28 -5 -34 7 -4 9 -3 6 3 -4 6 0 16 8 23 8 7 15 9 15 5 0
-4 6 -3 13 3 10 8 13 6 14 -11 2 -17 0 -18 -7 -7 -7 11 -9 10 -7 -7 1 -18 4
-20 16 -10 12 10 14 9 9 -4 -4 -9 -1 -16 7 -16 10 0 11 5 4 18 -17 32 -9 35
12 4 12 -16 19 -22 15 -13 -3 10 -1 20 5 23 5 4 6 11 3 17 -4 7 -2 8 5 4 9 -6
9 -11 -1 -24 -11 -14 -10 -15 5 -9 10 4 21 7 23 7 3 0 3 4 0 9 -3 5 1 14 8 20
18 15 16 -2 -2 -36 -18 -32 -15 -35 11 -10 13 12 21 29 19 37 -3 12 -2 12 6 2
10 -15 4 -61 -11 -81 -15 -18 -17 -40 -5 -47 5 -3 2 -14 -8 -25 -9 -10 -14
-25 -11 -34 4 -8 2 -15 -4 -15 -6 0 -7 -4 -4 -10 3 -6 1 -10 -5 -10 -6 0 -8
-5 -5 -10 9 -14 25 -12 22 3 -1 6 4 11 12 9 7 -2 20 6 28 18 8 11 19 18 24 15
5 -4 9 -1 9 5 0 6 4 9 9 5 6 -3 8 3 6 13 -2 12 3 18 18 20 17 1 19 -1 7 -8
-12 -8 -12 -10 -1 -10 11 0 11 -3 0 -17 -12 -16 -12 -17 2 -6 9 7 18 10 21 7
3 -2 8 2 12 11 3 9 2 13 -4 10 -15 -9 -7 30 9 45 13 12 14 12 8 -3 -3 -9 -1
-19 6 -23 7 -4 9 -3 4 1 -4 5 1 17 10 28 11 12 12 17 4 12 -10 -6 -12 -4 -6 4
4 7 16 10 27 8 13 -4 22 1 29 16 6 12 25 29 42 38 18 9 31 24 31 33 -1 8 2 13
7 11 4 -3 13 4 19 15 6 11 16 19 23 17 7 -1 11 5 9 13 -3 12 -1 12 9 3 9 -9 9
-16 1 -26 -9 -10 -8 -17 1 -27 6 -7 7 -10 1 -7 -6 4 -16 -5 -23 -19 -6 -15
-16 -22 -23 -18 -6 4 -8 3 -5 -3 8 -13 -17 -36 -27 -25 -4 4 -6 0 -4 -8 2 -8
-3 -14 -10 -12 -8 1 -11 -1 -8 -6 7 -12 -68 -84 -79 -75 -4 5 -5 3 -2 -3 9
-15 -39 -59 -48 -45 -3 6 -12 11 -18 11 -7 0 -4 -5 7 -11 17 -10 15 -15 -25
-55 -23 -24 -46 -41 -51 -38 -5 3 -7 0 -6 -8 2 -7 -3 -12 -10 -10 -8 1 -11 -2
-8 -6 5 -9 -26 -45 -35 -40 -2 2 -3 1 -2 -1 5 -9 -37 -42 -46 -37 -7 5 -8 1
-4 -10 5 -13 3 -15 -7 -9 -8 5 -11 4 -6 -3 7 -11 -207 -215 -319 -303 -205
-160 -422 -259 -695 -315 -170 -35 -519 -29 -718 12 -170 35 -510 162 -496
185 3 5 -2 6 -10 3 -9 -3 -16 -2 -16 4 0 5 -9 12 -19 15 -14 3 -18 11 -14 26
8 32 22 35 32 9 7 -16 10 -18 10 -6 1 9 5 19 10 22 5 4 7 -2 4 -13 -3 -10 0
-22 6 -25 6 -4 9 -1 5 7 -3 8 3 20 12 28 12 9 15 10 10 2 -4 -8 -2 -13 5 -13
8 0 8 -5 -2 -18 -11 -14 -11 -15 1 -4 18 16 33 16 24 0 -4 -7 -4 -10 1 -6 4 4
15 2 24 -4 12 -10 12 -7 -2 8 -9 11 -14 23 -11 27 4 3 15 -4 25 -16 11 -12 19
-17 18 -12 -3 22 1 35 12 35 5 0 8 -4 5 -8 -3 -5 1 -9 9 -9 8 0 14 3 13 6 -2
19 4 22 19 10 15 -13 15 -12 2 8 -11 19 -15 20 -22 7 -7 -12 -12 -13 -23 -3
-11 9 -16 7 -22 -12 l-9 -24 -7 23 c-5 13 -5 26 -2 29 3 4 6 1 6 -7 0 -10 3
-10 14 -1 11 9 16 9 21 0 6 -8 10 -8 15 2 5 7 16 14 24 15 9 1 14 -1 12 -4 -2
-4 2 -12 9 -19 10 -10 14 -9 18 2 6 14 23 15 45 1 7 -4 12 -4 11 1 -5 27 1 35
16 23 14 -11 19 -7 16 13 0 4 4 7 9 7 6 0 10 -6 10 -12 0 -9 4 -8 10 2 5 8 10
11 10 6 0 -5 7 -3 15 4 8 6 14 15 13 18 -1 4 2 15 7 25 5 11 3 23 -5 30 -10
10 -11 7 -5 -13 4 -17 3 -21 -3 -11 -7 9 -12 10 -16 2 -4 -6 -2 -11 3 -11 6 0
3 -8 -6 -18 -10 -10 -21 -14 -24 -9 -4 5 -9 4 -13 -2 -4 -6 -12 -8 -18 -5 -7
5 -8 2 -3 -6 5 -8 4 -11 -3 -6 -6 3 -15 -2 -21 -11 -8 -14 -10 -15 -11 -3 0
13 -1 13 -10 0 -9 -13 -10 -13 -10 0 -1 11 -4 10 -15 -4 -8 -11 -15 -15 -15
-9 0 6 7 16 15 23 8 7 15 9 15 5 0 -4 7 -2 15 5 8 7 15 9 15 4 0 -5 9 2 20 16
16 20 19 21 13 5 -6 -18 -5 -18 10 -6 9 7 14 17 11 22 -3 5 0 8 8 7 7 -2 12 3
10 10 -1 8 2 11 8 7 9 -6 14 8 11 28 -1 5 3 6 8 3 5 -4 12 -2 16 4 3 5 11 10
18 10 6 0 2 -7 -9 -15 -18 -14 -17 -15 11 -9 17 4 32 10 35 14 3 4 13 6 22 5
10 -2 16 2 15 8 -1 7 3 11 10 10 7 -2 10 4 7 15 -5 14 -3 14 10 -2 9 -11 16
-15 16 -9 0 7 -5 15 -10 18 -6 4 -8 12 -4 18 3 7 -3 2 -14 -10 -16 -18 -21
-20 -25 -9 -5 12 -13 13 -44 4 -62 -18 -344 -15 -453 5 -111 20 -126 24 -240
67 -116 43 -264 125 -343 189 -16 14 -16 15 0 34 18 20 18 20 -7 5 -24 -15
-26 -14 -49 9 -23 24 -23 25 -2 18 16 -5 21 -2 21 11 0 13 3 14 15 4 13 -11
13 -14 -2 -26 -10 -7 -13 -14 -6 -14 15 0 28 21 25 41 -2 9 3 21 11 27 10 9
13 6 14 -11 2 -17 0 -19 -7 -7 -5 8 -10 11 -10 5 0 -5 4 -16 8 -23 6 -9 12 -6
20 12 10 22 8 27 -11 41 -12 8 -25 15 -30 15 -5 0 -14 6 -21 13 -7 6 -28 23
-46 37 -154 117 -228 185 -304 280 -72 91 -137 196 -130 214 3 7 1 17 -5 21
-7 4 -9 -1 -5 -12 3 -10 -5 1 -19 24 -14 23 -29 53 -32 65 -4 13 -14 30 -22
39 -8 9 -15 27 -15 40 -1 13 -8 32 -16 42 -9 9 -16 39 -18 66 -1 27 -5 55 -9
62 -5 8 -4 10 3 5 8 -5 12 2 12 19 0 14 -4 24 -9 21 -5 -4 -7 3 -4 14 7 26 18
33 20 12 0 -9 2 -30 3 -47 2 -16 -1 -39 -5 -50 -5 -16 -5 -17 4 -5 10 14 12
13 15 -9 0 -5 4 -13 9 -17 18 -18 5 -25 -16 -8 -14 12 -12 8 6 -12 15 -17 24
-34 20 -39 -5 -5 0 -3 10 4 9 7 17 19 16 25 0 7 -2 6 -6 -2 -2 -6 -9 -10 -13
-7 -5 3 -7 12 -4 20 4 8 11 12 18 8 6 -4 6 0 -2 9 -9 11 -10 18 -2 23 6 3 8
11 4 16 -3 5 -10 7 -15 3 -5 -3 -7 -9 -4 -14 3 -5 1 -11 -4 -14 -12 -8 -8 14
7 39 6 11 12 15 12 8 0 -7 7 -10 15 -7 8 4 15 2 15 -4 0 -6 8 -9 18 -7 9 1 16
9 14 16 -1 8 6 4 17 -8 17 -21 20 -21 27 -5 4 9 6 21 5 25 -1 5 3 6 9 2 6 -4
4 -14 -5 -29 -19 -29 -8 -41 14 -15 16 20 17 20 31 3 12 -15 12 -16 1 -9 -9 5
-12 4 -8 -2 3 -5 -3 -18 -15 -27 -16 -14 -20 -15 -15 -3 4 10 0 14 -11 12 -9
-1 -23 3 -31 9 -12 9 -13 8 -6 -4 8 -13 7 -13 -10 0 -15 12 -17 12 -10 1 5 -9
4 -12 -3 -7 -6 4 -9 14 -6 24 5 14 3 14 -10 -2 -11 -13 -16 -15 -16 -6 0 7 -3
10 -6 7 -4 -4 -2 -13 4 -20 7 -8 8 -18 4 -22 -4 -5 -1 -5 6 -1 7 4 12 2 12 -5
0 -7 7 -4 16 7 12 15 14 15 11 2 -7 -19 20 -18 33 2 6 9 10 6 16 -11 4 -13 7
-28 6 -32 -1 -5 2 -6 8 -2 6 4 17 2 24 -4 9 -8 13 -7 13 4 0 7 -3 14 -6 13
-17 -2 -31 3 -31 10 0 5 12 8 28 7 15 0 27 -6 27 -12 0 -6 3 -14 7 -18 8 -9 4
13 -9 45 -6 14 -8 29 -5 35 3 5 9 -1 12 -15 6 -25 6 -25 12 -2 3 12 3 22 -1
22 -4 0 -8 11 -9 26 -1 14 -7 34 -13 45 -12 24 -18 47 -24 109 -3 25 -8 56
-12 70 -10 40 -10 59 -1 54 15 -9 22 28 9 48 -7 11 -8 17 -3 14 13 -8 34 18
24 30 -4 5 3 0 16 -10 12 -11 22 -25 22 -31 0 -16 39 -64 40 -48 0 6 -3 13 -7
15 -15 6 -93 178 -124 269 -76 233 -77 507 -2 722 9 26 20 47 25 47 4 0 5 7 2
15 -4 8 -1 15 5 15 6 0 8 6 5 14 -3 8 -1 17 5 21 6 3 11 0 12 -7 0 -7 4 -4 9
7 5 11 9 14 9 8 1 -7 6 -13 12 -13 5 0 8 4 5 8 -3 5 1 9 8 9 8 0 12 -10 10
-24 -1 -12 3 -26 8 -30 6 -3 8 -2 5 3 -3 6 4 16 16 24 20 12 21 12 8 -3 -10
-13 -10 -17 -1 -17 10 0 10 -3 0 -15 -7 -8 -16 -13 -19 -10 -4 2 -8 -3 -8 -11
0 -11 6 -9 23 7 14 13 24 17 29 10 3 -6 10 -9 15 -6 9 5 26 -33 22 -48 -1 -5
2 -6 8 -2 6 4 5 16 -5 36 -9 16 -12 29 -7 29 5 0 14 -10 20 -22 11 -23 11 -23
8 2 -3 21 -9 25 -34 25 -16 0 -28 4 -25 9 4 5 1 6 -5 2 -8 -5 -10 -2 -6 8 3 9
11 13 18 9 11 -8 32 -13 53 -15 7 -1 9 -6 6 -11 -3 -5 0 -8 8 -5 7 2 24 -7 38
-21 17 -19 22 -21 18 -8 -4 11 -3 16 3 12 6 -3 10 -14 11 -23 0 -11 2 -13 6
-4 4 10 9 10 21 1 10 -6 -3 7 -28 29 -25 22 -48 38 -52 36 -5 -3 -8 1 -8 9 0
7 -10 23 -22 34 -41 37 -84 87 -110 129 -26 40 -26 41 -5 40 12 -1 27 -5 33
-8 12 -8 64 37 64 54 0 6 3 8 6 5 4 -4 20 10 36 31 16 20 63 71 103 113 l75
75 -20 22 c-12 12 -16 22 -11 22 5 0 17 -10 25 -22 31 -44 161 -170 208 -200
l47 -31 -75 -83 c-71 -81 -168 -218 -195 -278 -12 -25 -14 -26 -20 -9 -5 12
-7 6 -6 -17 0 -19 -8 -73 -19 -120 -29 -128 -27 -442 4 -598 51 -255 160 -489
339 -729 132 -177 308 -326 508 -430 129 -67 427 -153 490 -140 14 2 28 0 31
-4 3 -5 55 -9 115 -9 61 0 108 3 105 8 -2 4 14 6 36 4 31 -3 39 -1 33 8 -5 9
-4 11 4 6 14 -9 73 3 66 13 -2 5 7 6 22 3 18 -3 24 -1 19 7 -6 8 0 10 18 5 19
-4 26 -2 26 9 0 8 7 18 16 21 24 9 31 7 14 -4 -9 -6 -10 -10 -3 -10 7 0 16 8
22 18 8 14 12 15 22 5 7 -7 20 -13 28 -13 11 0 12 3 5 8 -15 10 -9 41 12 61 9
9 14 10 10 4 -4 -7 -3 -13 3 -13 6 0 15 9 22 21 10 19 9 20 -11 14 -15 -5 -20
-3 -16 3 3 6 2 13 -3 16 -4 3 -8 -4 -7 -17 1 -24 -20 -30 -43 -13 -10 7 -13 7
-9 1 7 -12 -38 -13 -49 -1 -5 4 -3 7 2 6 20 -4 33 0 38 13 4 10 -3 13 -21 12
-20 -2 -37 8 -62 34 -19 20 -29 30 -22 21 19 -26 14 -35 -8 -15 -11 10 -22 27
-26 38 -5 16 -8 17 -16 6 -7 -10 -8 -8 -5 9 3 12 1 20 -4 16 -5 -3 -9 -13 -10
-22 0 -10 -3 -12 -6 -5 -3 10 -8 9 -20 -2 -18 -19 -45 -3 -36 21 4 12 8 12 19
-3 12 -17 13 -16 7 4 -6 26 9 46 120 163 76 79 226 240 340 363 26 29 59 64
73 78 15 15 24 31 20 37 -3 5 1 12 9 16 8 3 15 10 15 16 0 6 -5 8 -12 3 -15
-9 -42 -14 -35 -6 3 3 2 16 -3 29 -12 30 -2 32 10 2 8 -22 9 -22 9 -3 1 12 -5
27 -11 35 -11 12 -10 12 5 1 20 -16 23 1 3 18 -16 13 -18 90 -3 109 5 7 7 15
3 19 -3 3 -6 1 -6 -5 0 -7 -5 -12 -10 -12 -7 0 -7 7 1 21 9 17 8 20 -2 14 -8
-6 -11 -4 -7 7 4 8 1 15 -6 15 -7 0 -13 -6 -13 -14 0 -7 4 -13 8 -13 7 0 8 -6
9 -50 1 -30 -6 -69 -12 -75 -4 -4 -5 1 -3 12 1 10 -5 27 -14 38 -15 18 -15 19
2 6 10 -8 17 -9 17 -3 0 6 -8 16 -17 22 -17 11 -17 11 0 6 12 -4 17 -2 14 6
-2 7 -10 12 -16 10 -7 -1 -10 2 -7 7 4 5 2 12 -4 16 -5 3 -10 -2 -11 -12 0
-11 -3 -13 -6 -5 -4 11 22 45 146 182 22 25 41 49 41 53 0 5 5 5 12 1 8 -5 9
-2 5 9 -4 11 -1 17 7 17 7 0 24 15 37 34 13 19 27 32 31 30 5 -3 8 -2 7 3 -4
22 2 34 13 27 7 -5 3 4 -9 20 -12 15 -19 35 -16 44 4 13 3 14 -5 3 -6 -8 -12
-9 -16 -3 -3 5 1 15 8 21 11 10 17 8 25 -6 6 -10 11 -13 11 -7 0 6 -9 19 -20
29 -16 15 -18 21 -7 33 10 13 9 14 -2 7 -11 -6 -13 -4 -9 7 4 8 1 15 -7 15 -8
0 -11 -7 -7 -16 5 -14 3 -14 -11 -2 -14 11 -15 17 -5 30 11 14 11 14 -3 4 -12
-9 -18 -10 -27 -1 -8 8 -13 7 -18 -5 -3 -9 -10 -15 -14 -12 -11 7 -6 -22 5
-32 4 -4 5 -3 1 4 -3 6 -2 14 4 18 13 8 13 -18 -1 -32 -8 -8 -8 -13 0 -17 6
-4 11 0 11 11 1 11 6 6 14 -13 14 -31 32 -49 51 -49 6 0 10 -10 11 -22 1 -15
-3 -20 -15 -16 -13 4 -14 3 -1 -5 8 -6 18 -8 22 -6 4 3 8 0 8 -6 0 -7 -9 -9
-22 -6 -13 3 -17 3 -10 0 6 -3 12 -10 12 -15 0 -6 -5 -7 -12 -3 -8 5 -9 2 -5
-10 4 -10 3 -15 -3 -11 -5 3 -7 21 -6 40 2 19 0 38 -5 41 -9 5 -12 -5 -12 -39
0 -10 -2 -15 -6 -12 -3 4 -6 10 -6 13 0 4 -5 14 -10 22 -14 22 -16 48 -5 55 6
3 10 11 10 17 0 6 -9 3 -20 -7 -11 -10 -17 -22 -13 -28 3 -6 1 -7 -6 -3 -7 5
-9 12 -3 19 4 7 8 18 8 25 -1 14 -21 17 -21 3 0 -5 -2 -12 -5 -15 -4 -3 -6 5
-6 19 0 13 5 23 11 22 5 -1 9 7 7 18 -3 24 6 34 457 493 434 444 471 483 464
495 -3 6 -1 7 4 4 6 -4 18 2 28 13 10 11 23 17 29 13 7 -4 7 -1 -1 7 -8 8 -9
20 -2 37 6 16 5 22 -1 18 -6 -3 -10 4 -10 16 0 12 -3 19 -7 16 -3 -4 -12 -2
-20 4 -11 10 -11 15 -1 28 11 14 11 14 -3 4 -19 -15 -33 -5 -19 12 7 8 5 12
-5 12 -8 0 -12 -4 -9 -8 2 -4 0 -10 -6 -14 -6 -4 -10 5 -10 20 0 18 4 24 13
19 7 -4 9 -3 4 2 -5 5 -14 9 -20 9 -7 0 -12 5 -12 12 0 6 -3 15 -7 19 -4 3 -6
-2 -4 -13 7 -36 -18 -58 -35 -31 -13 20 -11 32 4 20 10 -8 13 -6 14 11 2 17 0
19 -7 7 -9 -13 -10 -13 -10 0 -1 12 -3 11 -11 -2 -11 -20 4 -59 22 -55 6 1 13
-6 14 -17 3 -17 2 -16 -19 3 -32 31 -44 26 -15 -6 l24 -28 -27 23 c-18 17 -25
31 -22 47 2 13 -1 27 -7 31 -7 4 -9 3 -5 -4 3 -6 2 -14 -4 -17 -6 -4 -10 -3
-9 2 1 4 1 10 -1 13 -1 3 -3 16 -6 30 -3 18 -2 21 5 10 5 -8 7 -18 4 -24 -3
-5 -1 -6 6 -2 6 4 9 13 5 19 -3 7 2 3 11 -8 15 -19 15 -19 12 5 -3 14 0 30 5
37 7 9 4 11 -11 8 -12 -2 -24 3 -29 12 -5 8 -12 14 -15 14 -4 -1 -8 -1 -9 0
-26 8 -36 5 -31 -8 5 -12 7 -12 15 -1 7 9 8 8 4 -6 -5 -15 -2 -17 13 -13 11 3
26 -2 32 -10 10 -12 8 -13 -15 -9 -18 3 -24 1 -20 -7 4 -7 -7 4 -23 23 l-30
34 -69 -65 c-82 -78 -124 -108 -143 -101 -8 2 -11 0 -7 -6 7 -12 -12 -11 -32
2 -10 6 -8 15 8 44 12 20 15 30 7 24 -7 -7 -18 -8 -22 -4 -5 4 -5 2 -2 -4 4
-7 -1 -18 -11 -25 -14 -11 -15 -11 -5 0 12 14 7 44 -6 37 -12 -8 -10 38 2 53
10 12 9 13 -2 6 -11 -6 -13 -4 -8 8 3 9 -1 21 -11 28 -14 11 -15 11 -5 -1 9
-9 9 -19 2 -33 -9 -15 -8 -18 3 -11 10 6 11 5 1 -8 -7 -8 -11 -18 -8 -21 3 -4
2 -4 -3 -1 -4 3 -7 11 -7 17 -1 7 -5 11 -10 10 -6 -1 -10 13 -11 30 l-1 32 14
-30 c11 -24 13 -25 8 -5 -4 14 -7 30 -7 37 -1 7 -6 11 -12 10 -6 -1 -10 4 -8
12 3 12 1 12 -14 0 -16 -12 -17 -12 -12 2 4 9 1 16 -7 16 -10 0 -11 -5 -4 -19
6 -10 15 -15 21 -12 7 5 8 2 3 -6 -6 -9 -4 -11 4 -5 10 6 11 3 1 -14 -9 -18
-30 -21 -30 -5 0 3 5 2 10 -1 6 -3 10 -2 10 3 0 17 -13 22 -29 9 -14 -10 -14
-10 -4 4 16 20 5 33 -14 17 -8 -6 -13 -7 -12 -2 4 15 -12 73 -22 79 -5 4 -6
-2 -3 -12 5 -15 4 -15 -4 -3 -8 10 -8 18 0 27 6 7 8 14 4 14 -3 1 -9 2 -13 3
-5 1 -14 5 -22 10 -9 6 -12 5 -7 -2 3 -6 2 -13 -3 -17 -18 -11 -2 38 21 64 21
23 330 337 791 803 91 91 163 169 159 172 -3 3 0 6 7 6 13 0 66 50 54 51 -4 0
3 5 16 10 15 6 21 15 17 24 -3 8 -2 14 2 14 16 -3 35 1 30 6 -8 8 56 75 71 75
7 0 9 5 6 10 -3 6 0 10 8 10 8 0 22 11 31 25 16 24 16 25 -6 26 -34 2 -62 5
-110 13 -24 4 -117 9 -208 12 l-165 4 -540 -539z m1018 482 c-3 -7 -6 -13 -8
-13 -2 0 -5 6 -8 13 -3 8 1 14 8 14 7 0 11 -6 8 -14z m-1453 -149 c0 -8 -19
-13 -24 -6 -3 5 1 9 9 9 8 0 15 -2 15 -3z m-2375 -722 c-2 -3 0 -14 6 -26 10
-21 10 -21 -6 -1 -9 11 -19 18 -22 15 -3 -3 -7 3 -9 13 -4 29 -14 33 -14 7 0
-13 -3 -21 -6 -17 -4 3 -3 18 0 33 l7 27 24 -23 c14 -13 23 -25 20 -28z m-238
-24 c-3 -8 -6 -5 -6 6 -1 11 2 17 5 13 3 -3 4 -12 1 -19z m234 -25 c13 -16 12
-17 -3 -4 -17 13 -22 21 -14 21 2 0 10 -8 17 -17z m119 -47 c0 -3 -4 -8 -10
-11 -5 -3 -10 -1 -10 4 0 6 5 11 10 11 6 0 10 -2 10 -4z m-53 -14 c11 9 13 8
11 -3 -2 -8 2 -13 9 -12 12 3 8 -43 -7 -81 -8 -20 -9 -20 -11 4 -1 14 -1 28 0
33 0 4 -5 7 -11 7 -9 0 -8 3 2 9 8 6 18 7 24 4 5 -3 6 -1 2 6 -4 6 -11 9 -15
6 -5 -2 -17 5 -27 18 -10 12 -12 16 -4 10 10 -10 17 -10 27 -1z m2010 -44 c-3
-8 -6 -5 -6 6 -1 11 2 17 5 13 3 -3 4 -12 1 -19z m10 -40 c-3 -8 -6 -5 -6 6
-1 11 2 17 5 13 3 -3 4 -12 1 -19z m-1980 -10 c-3 -8 -6 -5 -6 6 -1 11 2 17 5
13 3 -3 4 -12 1 -19z m-10 -40 c-3 -8 -6 -5 -6 6 -1 11 2 17 5 13 3 -3 4 -12
1 -19z m2010 -80 c-3 -8 -6 -5 -6 6 -1 11 2 17 5 13 3 -3 4 -12 1 -19z m500
-80 c-3 -8 -6 -5 -6 6 -1 11 2 17 5 13 3 -3 4 -12 1 -19z m-1473 -86 c2 -4 1
-14 -3 -21 -6 -9 -10 -7 -14 8 -5 20 7 29 17 13z m1993 -57 c0 -8 -4 -12 -9
-9 -5 3 -6 10 -3 15 9 13 12 11 12 -6z m-1977 -24 c0 -6 -4 -12 -10 -16 -6 -3
-6 -15 0 -29 5 -13 6 -27 2 -31 -4 -4 1 -13 11 -20 12 -8 14 -15 8 -20 -6 -3
-11 0 -11 7 -1 9 -5 8 -14 -4 -7 -9 -12 -33 -11 -52 1 -20 1 -36 0 -36 -1 0
-10 10 -21 22 -10 12 -14 18 -7 15 18 -11 26 12 11 30 -7 9 -8 14 -2 10 17
-10 25 20 9 33 -7 6 -12 19 -10 28 1 9 -3 24 -9 32 -9 13 -9 13 6 2 9 -7 15
-22 13 -32 -4 -23 11 -36 18 -16 3 7 0 25 -8 39 -9 18 -10 28 -2 36 13 13 27
14 27 2z m2033 -41 c3 -11 1 -18 -4 -14 -5 3 -9 12 -9 20 0 20 7 17 13 -6z
m144 -83 c6 1 19 -7 28 -17 10 -11 16 -20 14 -21 -2 0 -11 -2 -20 -4 -12 -2
-15 3 -12 19 5 21 5 21 -11 1 -15 -19 -16 -19 -9 -1 4 12 2 17 -3 13 -6 -3
-10 10 -11 31 -1 36 -1 36 6 7 4 -16 12 -29 18 -28z m50 -62 c0 -8 -4 -12 -9
-9 -5 3 -6 10 -3 15 9 13 12 11 12 -6z m4 -68 c-10 -9 -11 -8 -5 6 3 10 9 15
12 12 3 -3 0 -11 -7 -18z m-2410 -204 c13 -16 12 -17 -3 -4 -10 7 -18 15 -18
17 0 8 8 3 21 -13z m33 -141 c3 -5 -1 -9 -9 -9 -8 0 -12 4 -9 9 3 4 7 8 9 8 2
0 6 -4 9 -8z m-1007 -142 c1 -11 -2 -22 -6 -24 -3 -3 -8 6 -9 20 -1 13 2 24 6
24 4 0 8 -9 9 -20z m2535 -534 c6 4 8 3 4 -4 -3 -6 -1 -14 4 -17 8 -5 6 -13
-4 -24 -9 -10 -13 -21 -9 -26 5 -4 2 -5 -6 0 -13 7 -33 48 -45 95 l-7 25 25
-28 c15 -16 31 -25 38 -21z m-29 -186 c3 -11 2 -22 -2 -24 -4 -3 -8 6 -9 20
-2 29 4 31 11 4z m505 -520 c-7 -10 -14 -17 -17 -15 -4 4 18 35 25 35 2 0 -1
-9 -8 -20z m-28 -23 c0 -2 -10 -12 -22 -23 l-23 -19 19 23 c18 21 26 27 26 19z
m72 -20 c-7 -8 -8 -18 -4 -23 4 -4 -1 -2 -10 5 -19 14 -25 26 -8 16 6 -3 13 1
16 10 4 9 9 14 12 11 3 -3 0 -12 -6 -19z m61 -27 c-3 -12 -8 -19 -11 -16 -5 6
5 36 12 36 2 0 2 -9 -1 -20z m1329 -63 c-7 -8 -9 -17 -5 -21 13 -12 10 -56 -4
-67 -7 -6 -13 -17 -13 -25 0 -18 -17 -27 -26 -13 -4 8 -3 9 4 5 7 -4 12 -1 12
7 0 8 6 20 14 26 18 15 12 49 -11 66 -10 7 -15 17 -10 21 4 4 7 2 7 -5 0 -7 5
-9 10 -6 8 5 7 12 -2 23 -12 15 -11 16 5 3 18 -14 23 -3 7 17 -5 7 -2 6 7 -2
13 -12 14 -18 5 -29z m-1342 24 c0 -6 -5 -13 -12 -17 -6 -4 -8 -3 -4 4 3 5 0
13 -6 15 -8 3 -6 6 5 6 9 1 17 -3 17 -8z m-3446 -48 c3 -11 1 -25 -3 -32 -4
-6 -8 4 -8 24 0 37 5 41 11 8z m3458 -1 c-7 -2 -9 -9 -6 -14 4 -7 2 -8 -4 -4
-6 4 -9 13 -6 21 4 8 11 12 17 8 8 -5 7 -8 -1 -11z m-3257 -14 c5 4 5 2 2 -5
-4 -6 -2 -13 5 -15 7 -3 8 -7 3 -10 -6 -3 -19 6 -30 21 -11 16 -13 21 -4 14 9
-7 20 -9 24 -5z m-5 -71 c0 -8 -7 -14 -15 -14 -11 0 -12 4 -4 14 6 7 13 13 15
13 2 0 4 -6 4 -13z m7080 -87 c0 -5 -2 -10 -4 -10 -3 0 -8 5 -11 10 -3 6 -1
10 4 10 6 0 11 -4 11 -10z m-1805 -52 c-7 -32 -12 -31 -13 2 0 17 3 28 8 25 5
-3 7 -15 5 -27z m1672 -20 c-3 -8 -6 -5 -6 6 -1 11 2 17 5 13 3 -3 4 -12 1
-19z m20 0 c-3 -8 -6 -5 -6 6 -1 11 2 17 5 13 3 -3 4 -12 1 -19z m-124 -110
c-4 -7 -9 -22 -10 -32 -5 -29 -15 -35 -11 -6 4 26 15 50 24 50 3 0 2 -6 -3
-12z m-2373 -48 c-5 -10 -7 -20 -5 -24 3 -3 2 -4 -2 -1 -3 3 -13 -1 -22 -8
-14 -10 -14 -10 -4 4 10 12 10 18 0 29 -10 12 -9 12 6 1 20 -15 23 -2 5 18
-11 11 -10 12 1 6 11 -6 13 -4 8 11 -7 19 -7 19 8 0 10 -13 11 -24 5 -36z m0
-50 c0 -5 -2 -10 -4 -10 -3 0 -8 5 -11 10 -3 6 -1 10 4 10 6 0 11 -4 11 -10z
m-1643 -32 c-3 -8 -6 -5 -6 6 -1 11 2 17 5 13 3 -3 4 -12 1 -19z m42 -1 c-8
-13 -14 -16 -21 -9 -13 13 -4 29 16 29 12 0 13 -5 5 -20z m22 0 c-10 -9 -11
-8 -5 6 3 10 9 15 12 12 3 -3 0 -11 -7 -18z m-937 -44 c10 -10 36 -13 36 -3 0
14 45 5 58 -12 7 -10 10 -29 7 -45 -5 -24 -4 -25 4 -6 10 22 48 26 44 4 -2 -6
0 -10 5 -8 4 1 8 -2 9 -8 1 -5 -7 -9 -17 -8 -14 2 -18 -2 -14 -15 5 -16 5 -16
-5 0 -6 9 -20 15 -30 13 -17 -3 -18 0 -10 28 11 40 4 47 -9 8 -6 -17 -14 -31
-17 -31 -3 0 -4 4 0 10 8 12 -5 60 -16 60 -5 0 -4 -11 1 -25 6 -15 6 -26 -1
-30 -5 -4 -9 -3 -8 2 1 4 1 16 0 27 -1 16 -3 17 -18 5 -10 -8 -14 -9 -10 -2 4
6 3 14 -2 17 -5 4 -12 2 -16 -4 -9 -15 -25 -2 -18 15 6 16 16 19 27 8z m1946
-23 c0 -5 -5 -10 -11 -10 -5 0 -7 5 -4 10 3 6 8 10 11 10 2 0 4 -4 4 -10z
m-34 -22 c4 -7 3 -8 -4 -4 -7 4 -12 1 -12 -6 0 -8 -21 -34 -46 -58 -26 -25
-43 -38 -39 -30 7 12 6 13 -7 3 -8 -7 -17 -10 -21 -7 -7 8 -3 -18 5 -32 4 -6
1 -11 -7 -11 -14 0 -29 53 -19 69 3 5 20 8 38 7 17 -2 32 1 33 6 0 6 -3 9 -8
8 -11 -4 -12 8 -1 22 9 13 35 19 28 6 -4 -5 -2 -12 4 -16 5 -3 10 1 10 10 0 9
4 14 9 11 5 -3 11 3 14 14 6 23 13 25 23 8z m540 -14 c-4 -15 -14 -33 -22 -41
-8 -8 -19 -24 -25 -36 -11 -19 -13 -19 -24 -4 -6 9 -15 14 -19 10 -4 -4 -4 1
0 12 7 18 8 18 17 -3 l10 -22 18 27 c13 19 15 32 8 44 -7 13 -5 21 8 28 29 17
36 13 29 -15z m890 -124 c70 -72 133 -138 138 -147 7 -13 -53 -78 -309 -331
l-317 -314 -90 88 c-104 104 -136 152 -95 145 4 -1 3 8 -3 19 -6 12 -7 20 -1
20 5 0 12 9 16 20 3 11 12 19 18 17 7 -1 11 4 9 11 -1 6 3 11 10 10 6 -2 17 7
23 19 7 13 15 20 19 16 4 -4 4 0 1 9 -4 9 0 18 10 22 9 3 13 11 10 16 -9 15
14 40 30 33 10 -3 13 1 10 16 -2 12 -6 25 -10 30 -3 5 0 13 6 17 8 5 9 3 4 -6
-6 -9 -4 -11 4 -6 7 5 10 14 7 22 -5 13 6 18 27 15 4 0 7 4 7 11 0 6 13 23 28
37 29 27 100 103 236 254 43 48 80 87 81 87 1 0 60 -59 131 -130z m1444 109
c0 -5 -10 -8 -22 -8 -18 1 -19 2 -5 6 9 2 14 9 11 15 -4 7 -2 8 4 4 7 -4 12
-11 12 -17z m-2388 -31 c-8 -8 -9 -4 -5 13 4 13 8 18 11 10 2 -7 -1 -18 -6
-23z m-2187 -27 c3 -5 2 -12 -3 -15 -5 -3 -9 1 -9 9 0 17 3 19 12 6z m977 -16
c10 2 16 -2 15 -8 -1 -7 4 -11 11 -9 10 2 10 -2 0 -17 -11 -18 -13 -18 -25 -3
-7 9 -13 13 -13 8 0 -5 -6 -3 -14 4 -8 6 -12 18 -9 27 3 8 9 10 12 5 3 -5 14
-8 23 -7z m1149 -12 c-12 -20 -14 -14 -5 12 4 9 9 14 11 11 3 -2 0 -13 -6 -23z
m-1341 -2 c0 -6 -4 -12 -8 -15 -5 -3 -9 1 -9 9 0 8 4 15 9 15 4 0 8 -4 8 -9z
m37 -53 c-3 -8 -6 -5 -6 6 -1 11 2 17 5 13 3 -3 4 -12 1 -19z m1248 -47 c-16
-16 -32 -26 -35 -24 -5 5 50 53 60 53 3 0 -8 -13 -25 -29z m-79 -66 c-11 -8
-25 -15 -30 -15 -6 1 0 7 14 15 32 19 40 18 16 0z m-805 -88 c-10 -9 -11 -8
-5 6 3 10 9 15 12 12 3 -3 0 -11 -7 -18z m1413 -85 c3 -5 -1 -9 -9 -9 -8 0
-12 4 -9 9 3 4 7 8 9 8 2 0 6 -4 9 -8z m-63 -75 c-10 -9 -11 -8 -5 6 3 10 9
15 12 12 3 -3 0 -11 -7 -18z m-3218 -222 c4 -8 2 -17 -3 -20 -6 -4 -10 3 -10
14 0 25 6 27 13 6z m-23 -9 c0 -8 -4 -18 -10 -21 -6 -4 -7 1 -3 11 5 13 3 15
-7 9 -9 -5 -11 -4 -6 3 10 17 26 15 26 -2z m4945 -116 l80 -80 -82 -82 -82
-82 -31 29 c-17 16 -28 35 -26 42 3 8 -1 10 -12 6 -9 -3 -14 -3 -10 1 3 4 -11
24 -33 43 -21 19 -39 40 -39 45 0 11 139 158 149 158 4 0 42 -36 86 -80z m689
-57 c5 -9 3 -19 -4 -26 -10 -9 -11 -9 -6 0 9 17 -26 21 -51 5 -16 -10 -23 -10
-29 -1 -5 8 -3 10 7 5 8 -4 6 -1 -3 7 -24 19 -23 27 2 22 19 -4 19 -3 4 21
-15 22 -32 36 -19 14 3 -5 -2 -19 -13 -30 -21 -23 -64 -22 -70 1 -3 11 -1 11
7 -1 13 -19 14 0 1 20 -5 8 -10 10 -10 3 0 -6 -15 -16 -32 -22 -30 -11 -28 -7
31 53 l64 64 56 -60 c31 -33 60 -67 65 -75z m-5704 63 c0 -3 -4 -8 -10 -11 -5
-3 -10 -1 -10 4 0 6 5 11 10 11 6 0 10 -2 10 -4z m-284 -75 c-9 -14 -26 -14
-26 0 0 5 5 7 12 3 8 -5 9 -1 4 12 -5 14 -4 16 5 7 6 -6 8 -16 5 -22z m-141
-10 c3 -5 2 -12 -3 -15 -5 -3 -9 1 -9 9 0 17 3 19 12 6z m5825 -322 c80 -83
146 -154 148 -158 5 -13 -271 -10 -287 3 -8 6 -12 7 -9 1 5 -9 -6 -10 -69 -6
-6 1 -13 10 -15 21 -2 12 -6 19 -9 18 -3 -2 -14 4 -25 12 -10 8 -16 11 -12 6
8 -10 -11 -51 -19 -42 -4 3 -12 1 -19 -5 -8 -7 -14 -7 -19 1 -3 6 -11 7 -17 4
-7 -5 -8 -2 -2 7 11 19 13 58 2 65 -5 3 -8 2 -7 -3 1 -4 1 -15 0 -23 -1 -12
-4 -11 -12 3 -8 14 -7 23 7 38 10 11 24 17 31 14 8 -3 11 0 7 6 -5 9 161 189
176 189 3 0 70 -68 150 -151z m-2859 -33 c-41 -41 -79 -72 -86 -70 -6 3 -20
-6 -31 -18 l-19 -23 23 19 c12 11 25 16 28 13 9 -9 -47 -57 -59 -50 -6 3 -7 1
-3 -6 11 -18 -499 -525 -519 -517 -9 3 -13 2 -10 -3 10 -17 -258 -191 -273
-177 -2 3 14 14 37 26 55 28 53 35 -3 8 -41 -20 -45 -20 -67 -4 -13 9 -18 17
-11 17 14 2 30 5 37 9 13 7 31 5 38 -5 4 -5 5 3 3 19 -3 16 -8 31 -11 34 -5 6
-9 -15 -5 -33 1 -5 -2 -7 -6 -3 -4 4 -13 3 -20 -3 -8 -7 -14 -6 -20 2 -4 7 -3
9 3 6 6 -4 18 5 28 19 12 19 20 23 29 15 9 -8 12 -5 12 12 -1 12 4 21 11 20 6
-2 15 6 18 17 3 10 19 25 35 32 20 9 26 16 19 24 -7 8 -4 11 8 10 12 0 17 5
17 17 -2 15 1 16 14 5 12 -10 14 -10 8 0 -4 6 -2 12 3 12 6 0 10 6 8 13 -1 6
3 11 10 10 6 -2 10 5 8 16 -2 10 3 18 10 18 8 0 11 -5 8 -11 -4 -6 1 -5 10 3
9 7 14 18 10 24 -4 6 -1 7 7 2 10 -6 12 -4 6 10 -5 15 -4 16 9 5 9 -7 15 -9
14 -4 -4 23 2 45 11 39 6 -3 10 -1 10 4 0 6 7 11 16 11 8 0 12 5 9 10 -3 6 1
10 9 10 16 0 48 39 41 50 -3 4 3 14 12 21 12 10 14 10 9 2 -14 -24 10 -13 46
21 20 19 34 37 30 40 -3 3 0 6 7 6 6 0 22 10 35 23 101 97 231 212 240 212 6
0 10 -6 8 -13 -1 -8 2 -11 8 -7 6 3 8 11 4 16 -3 6 0 9 8 7 7 -2 13 2 13 7 0
6 -4 9 -8 7 -9 -3 -2 13 15 35 12 15 38 6 38 -12 0 -8 5 -17 12 -21 7 -5 9 -2
4 7 -4 8 -1 5 8 -5 8 -10 13 -23 10 -27 -3 -5 2 -6 10 -3 13 5 13 9 -2 32 -9
14 -11 23 -4 19 6 -5 12 -4 12 0 0 5 -6 15 -12 23 -7 8 1 3 17 -12 l30 -27 44
45 c24 24 46 44 49 44 4 0 -27 -33 -67 -74z m2479 -66 c0 -5 -10 -15 -22 -21
-23 -12 -23 -12 -4 10 21 23 26 26 26 11z m112 -52 c-8 -8 -9 -4 -5 13 4 13 8
18 11 10 2 -7 -1 -18 -6 -23z m25 0 c-3 -7 -5 -2 -5 12 0 14 2 19 5 13 2 -7 2
-19 0 -25z m-1247 -473 c0 -12 -19 -12 -23 0 -4 9 -1 12 9 8 7 -3 14 -7 14 -8z
m-56 -21 c3 -8 2 -12 -4 -9 -6 3 -10 10 -10 16 0 14 7 11 14 -7z m-2299 -206
c29 -13 32 -23 9 -32 -12 -4 -15 -2 -10 9 3 8 1 15 -4 15 -10 0 -14 -15 -11
-34 1 -5 -6 -3 -15 5 -16 13 -17 12 -10 -6 5 -14 4 -17 -3 -9 -8 7 -7 18 1 37
7 15 14 27 15 27 1 0 14 -5 28 -12z"/>
<path d="M1713 8255 c0 -8 4 -12 9 -9 5 3 6 10 3 15 -9 13 -12 11 -12 -6z"/>
<path d="M4220 6412 c0 -6 5 -14 10 -17 6 -4 7 -11 4 -17 -5 -7 -2 -8 6 -3 10
6 12 4 6 -11 -6 -15 -4 -16 5 -7 9 9 7 18 -10 39 -11 15 -21 22 -21 16z"/>
<path d="M3597 4989 c4 -13 8 -18 11 -10 2 7 -1 18 -6 23 -8 8 -9 4 -5 -13z"/>
<path d="M3653 4945 c0 -8 4 -12 9 -9 5 3 6 10 3 15 -9 13 -12 11 -12 -6z"/>
<path d="M5970 4961 c0 -7 -4 -9 -10 -6 -6 4 -7 -1 -3 -11 6 -15 7 -15 15 1 6
9 7 19 4 22 -3 4 -6 1 -6 -6z"/>
<path d="M4696 4848 c3 -5 9 -7 12 -4 3 3 12 0 21 -6 13 -10 14 -10 4 2 -15
16 -46 23 -37 8z"/>
<path d="M8523 4057 c0 -8 6 -14 14 -14 9 0 10 4 2 14 -6 7 -12 13 -14 13 -1
0 -2 -6 -2 -13z"/>
<path d="M8047 3609 c16 -18 19 -28 12 -39 -8 -12 -9 -12 -7 4 2 10 -2 21 -8
23 -7 2 -10 -7 -8 -24 3 -38 2 -37 17 -24 8 6 16 9 19 6 2 -3 4 14 4 36 0 23
-2 37 -4 30 -3 -8 -9 -8 -25 0 l-22 12 22 -24z"/>
<path d="M8150 3557 c0 -2 6 -10 14 -16 11 -9 16 -9 22 1 4 7 4 10 -1 6 -4 -4
-14 -3 -22 3 -7 6 -13 9 -13 6z"/>
<path d="M5366 3662 c-3 -5 1 -15 8 -21 11 -10 14 -9 12 3 -3 21 -13 29 -20
18z"/>
<path d="M5450 3640 c0 -5 5 -10 10 -10 6 0 10 5 10 10 0 6 -4 10 -10 10 -5 0
-10 -4 -10 -10z"/>
<path d="M4635 2949 c-4 -5 -11 -7 -16 -4 -15 10 -10 -1 7 -15 12 -11 15 -11
12 1 -2 9 4 13 15 11 21 -4 23 4 2 11 -8 4 -17 2 -20 -4z"/>
<path d="M4649 2913 c-13 -16 -12 -17 4 -4 16 13 21 21 13 21 -2 0 -10 -8 -17
-17z"/>
<path d="M8306 8731 l-36 -37 109 -108 c93 -92 111 -107 127 -98 11 6 64 56
118 111 l99 101 -39 1 c-61 1 -218 12 -291 21 -7 1 -10 5 -7 10 3 4 -2 11 -10
14 -9 3 -14 9 -11 13 2 4 -2 8 -10 8 -8 0 -30 -17 -49 -36z m55 13 c12 -15 11
-16 -10 -9 -18 5 -22 4 -16 -5 5 -9 4 -11 -4 -6 -9 6 -9 11 0 22 14 17 14 17
30 -2z"/>
<path d="M8380 8766 c0 -2 8 -10 18 -17 15 -13 16 -12 3 4 -13 16 -21 21 -21
13z"/>
<path d="M3360 8684 c0 -8 5 -12 10 -9 6 4 8 11 5 16 -9 14 -15 11 -15 -7z"/>
<path d="M2506 8661 c-19 -7 -19 -8 2 -13 16 -5 20 -11 16 -25 -5 -14 -4 -15
4 -3 8 10 8 18 0 27 -12 15 3 18 18 3 7 -7 11 -6 11 5 0 16 -20 18 -51 6z"/>
<path d="M2603 8663 c9 -2 23 -2 30 0 6 3 -1 5 -18 5 -16 0 -22 -2 -12 -5z"/>
<path d="M2688 8663 c12 -2 30 -2 40 0 9 3 -1 5 -23 4 -22 0 -30 -2 -17 -4z"/>
<path d="M2768 8653 c7 -3 16 -2 19 1 4 3 -2 6 -13 5 -11 0 -14 -3 -6 -6z"/>
<path d="M3296 8646 c5 -12 4 -17 -3 -13 -5 3 -10 0 -10 -7 0 -8 7 -13 16 -11
17 3 17 23 0 40 -7 7 -8 3 -3 -9z"/>
<path d="M2925 8610 c27 -12 43 -12 25 0 -8 5 -22 9 -30 9 -10 0 -8 -3 5 -9z"/>
<path d="M2997 8579 c7 -7 15 -10 18 -7 3 3 -2 9 -12 12 -14 6 -15 5 -6 -5z"/>
<path d="M3096 8565 c-11 -8 -15 -15 -9 -15 6 0 16 7 23 15 16 19 11 19 -14 0z"/>
<path d="M3036 8557 c3 -10 9 -15 12 -12 3 3 0 11 -7 18 -10 9 -11 8 -5 -6z"/>
<path d="M2706 8467 c3 -10 9 -15 12 -12 3 3 0 11 -7 18 -10 9 -11 8 -5 -6z"/>
<path d="M1550 8430 c-6 -11 -8 -20 -6 -20 3 0 10 9 16 20 6 11 8 20 6 20 -3
0 -10 -9 -16 -20z"/>
<path d="M2719 8423 c-13 -16 -12 -17 4 -4 9 7 17 15 17 17 0 8 -8 3 -21 -13z"/>
<path d="M2756 8428 c3 -5 10 -6 15 -3 13 9 11 12 -6 12 -8 0 -12 -4 -9 -9z"/>
<path d="M2870 8385 c-24 -25 -42 -45 -39 -45 3 0 25 20 49 45 24 25 42 45 39
45 -3 0 -25 -20 -49 -45z"/>
<path d="M2736 8412 c-3 -5 1 -9 9 -9 8 0 12 4 9 9 -3 4 -7 8 -9 8 -2 0 -6 -4
-9 -8z"/>
<path d="M2756 8378 c3 -5 10 -6 15 -3 13 9 11 12 -6 12 -8 0 -12 -4 -9 -9z"/>
<path d="M1615 8333 c-13 -29 -14 -43 -4 -49 5 -3 9 1 10 8 0 7 2 23 5 36 5
26 -1 29 -11 5z"/>
<path d="M1855 8239 c-4 -6 -5 -12 -2 -15 2 -3 7 2 10 11 7 17 1 20 -8 4z"/>
<path d="M1871 8219 c-7 -17 -11 -32 -8 -35 2 -3 10 9 17 26 17 40 8 48 -9 9z"/>
<path d="M1770 8206 c0 -2 8 -10 18 -17 15 -13 16 -12 3 4 -13 16 -21 21 -21
13z"/>
<path d="M3866 8168 c8 -15 17 -28 20 -28 3 0 2 5 -1 10 -4 6 -1 19 7 28 12
16 11 16 -6 2 -18 -13 -19 -13 -14 1 4 9 1 16 -7 16 -11 0 -11 -6 1 -29z"/>
<path d="M8289 8103 c-58 -51 -89 -87 -60 -69 6 4 9 2 6 -6 -3 -7 24 -42 60
-77 l65 -64 25 23 c14 13 23 30 21 37 -3 7 1 10 8 7 7 -3 23 11 37 30 13 19
27 33 30 30 4 -2 11 1 15 7 5 8 3 9 -6 4 -10 -6 -12 -4 -7 8 6 16 -19 45 -29
34 -10 -9 7 -28 18 -21 7 4 8 2 4 -5 -12 -19 -38 8 -31 30 4 11 2 19 -4 19 -6
0 -11 -4 -11 -8 0 -5 -6 -9 -14 -9 -8 0 -12 6 -9 14 3 7 9 13 14 13 6 0 4 6
-3 14 -11 11 -15 11 -24 -3 -7 -9 -10 -19 -8 -23 3 -5 -4 -5 -35 1 -2 1 2 8 9
16 7 8 16 12 21 9 5 -3 9 0 9 5 0 15 -33 14 -48 -1 -9 -9 -12 -9 -12 0 0 7 4
12 9 12 5 0 11 7 15 15 3 8 4 15 2 15 -2 0 -32 -25 -67 -57z"/>
<path d="M8375 8150 c3 -5 11 -10 16 -10 6 0 7 5 4 10 -3 6 -11 10 -16 10 -6
0 -7 -4 -4 -10z"/>
<path d="M8726 7821 c-9 -9 -16 -22 -16 -27 0 -6 45 -56 101 -113 l101 -102
49 48 c28 26 63 67 78 90 16 23 31 40 35 36 3 -3 6 -1 6 5 0 6 -4 14 -10 17
-5 3 -10 11 -10 17 0 6 7 5 18 -3 14 -11 15 -11 5 1 -13 14 -28 17 -146 24
-44 2 -85 10 -94 17 -14 11 -15 12 -9 1 6 -10 2 -13 -15 -10 -13 2 -27 8 -31
13 -5 6 -8 5 -8 -3 0 -9 -5 -10 -19 -3 -14 8 -22 6 -35 -8z"/>
<path d="M4431 7820 c0 -8 4 -24 9 -35 5 -13 9 -14 9 -5 0 8 -4 24 -9 35 -5
13 -9 14 -9 5z"/>
<path d="M2800 7756 c0 -2 7 -9 15 -16 9 -7 15 -8 15 -2 0 5 -7 12 -15 16 -8
3 -15 4 -15 2z"/>
<path d="M4580 7675 c-13 -16 -8 -28 14 -31 7 -1 13 4 13 12 0 10 -4 11 -14 3
-16 -14 -17 3 -1 19 7 7 9 12 6 12 -3 0 -11 -7 -18 -15z"/>
<path d="M4623 7608 c-31 -40 -19 -63 13 -25 16 18 16 19 2 8 -20 -15 -25 -2
-6 17 7 7 9 12 6 12 -3 0 -10 -6 -15 -12z"/>
<path d="M6930 7500 c-145 -15 -349 -75 -475 -138 -121 -60 -270 -168 -395
-285 -39 -36 -70 -62 -70 -57 0 4 -8 7 -17 6 -13 -1 -19 8 -21 29 -5 49 -10
59 -26 46 -14 -11 -26 -5 -26 13 0 6 5 4 10 -4 6 -9 10 -10 10 -3 0 16 -17 26
-25 13 -8 -13 -25 -3 -25 13 0 7 4 6 10 -3 7 -12 9 -10 7 7 0 12 -6 21 -12 20
-5 -1 -9 3 -8 10 3 12 -14 12 -34 0 -16 -10 -17 5 -1 21 9 9 6 11 -10 7 -14
-2 -22 1 -22 10 0 8 -4 17 -10 20 -12 7 -2 -21 18 -52 8 -13 18 -21 22 -18 5
3 11 1 15 -5 4 -6 11 -8 16 -5 5 3 6 -1 2 -10 -5 -13 -7 -14 -14 -3 -5 7 -9 9
-9 4 0 -5 -6 -3 -13 3 -8 6 -18 7 -22 3 -5 -4 -5 -2 -2 4 4 6 -1 20 -9 30 -14
17 -15 17 -10 1 4 -11 2 -16 -5 -12 -5 4 -7 16 -3 27 4 13 2 18 -5 14 -10 -7
-41 43 -41 66 0 7 9 -5 19 -27 23 -48 27 -42 6 9 -15 35 -35 41 -35 11 0 -8
-4 -16 -9 -19 -5 -4 -7 4 -5 16 2 13 2 17 -2 10 -3 -6 -10 -10 -15 -7 -8 6
-157 -127 -191 -171 -18 -22 -15 -25 400 -445 230 -233 434 -442 453 -463 56
-65 157 -166 166 -166 5 0 85 77 178 171 218 220 288 282 407 363 124 83 252
145 398 190 193 59 271 71 490 71 216 0 321 -15 467 -63 46 -16 83 -26 83 -24
0 16 -81 115 -164 201 -237 243 -501 410 -783 496 l-43 13 -257 -250 c-142
-138 -340 -332 -440 -433 -100 -100 -185 -180 -188 -177 -3 3 3 15 12 26 14
15 14 18 2 8 -9 -6 -19 -9 -22 -6 -3 4 -4 -5 -2 -19 6 -32 -17 -54 -35 -32 -7
8 -9 15 -6 15 4 0 1 10 -6 23 -7 12 -12 24 -11 27 1 5 -16 9 -54 12 -7 1 -10
5 -7 10 3 5 11 5 17 2 7 -4 7 -2 -1 7 -7 8 -17 15 -22 15 -6 1 -14 2 -20 3 -5
0 -10 6 -10 12 0 5 5 7 12 3 7 -4 8 -3 4 5 -4 6 -12 9 -17 6 -5 -4 -9 0 -9 7
0 9 -3 9 -10 -2 -7 -11 -10 -11 -10 -2 0 7 -4 11 -8 8 -4 -2 -14 -1 -22 5 -11
6 -12 9 -2 9 7 0 10 5 7 10 -5 8 -12 7 -23 -2 -22 -17 170 188 217 230 86 80
250 130 390 118 l76 -6 195 195 c107 107 192 197 189 199 -28 28 -408 53 -559
36z m-1240 -243 c0 -2 -12 -14 -27 -28 -20 -18 -24 -19 -13 -4 18 24 40 42 40
32z m248 -182 c-3 -30 -2 -29 -19 -8 -10 11 -10 14 -1 9 7 -4 12 -1 12 8 0 9
2 16 5 16 3 0 4 -11 3 -25z m3 -52 c13 -16 12 -17 -3 -4 -10 7 -18 15 -18 17
0 8 8 3 21 -13z m39 -17 c0 -2 -8 -10 -17 -17 -16 -13 -17 -12 -4 4 13 16 21
21 21 13z m-40 -40 c0 -2 -8 -10 -17 -17 -16 -13 -17 -12 -4 4 13 16 21 21 21
13z m478 -433 c51 -56 92 -104 92 -108 0 -3 -9 -1 -20 5 -13 7 -20 7 -20 1 0
-6 -7 -8 -15 -5 -8 4 -12 11 -9 16 4 6 -3 5 -15 -1 -18 -10 -21 -9 -22 11 0
13 -3 17 -6 11 -7 -20 -20 -15 -27 10 -6 22 -7 22 -21 3 -14 -19 -15 -18 -16
10 0 25 -2 26 -9 9 -7 -17 -9 -17 -9 -2 -1 10 -9 17 -22 17 -13 0 -18 -4 -13
-12 6 -10 5 -10 -8 -1 -8 7 -19 9 -23 5 -5 -4 -5 -1 -1 6 4 7 11 10 15 8 4 -3
8 1 8 9 0 11 -4 12 -14 3 -7 -6 -16 -8 -20 -4 -3 3 -16 -2 -27 -11 -12 -9 -9
-4 6 13 15 16 44 48 64 72 20 23 38 41 39 40 1 -2 43 -49 93 -105z m186 51 c3
-8 2 -12 -4 -9 -6 3 -10 10 -10 16 0 14 7 11 14 -7z m7 -41 c13 -16 12 -17 -3
-4 -10 7 -18 15 -18 17 0 8 8 3 21 -13z m-244 -85 c-3 -8 -6 -5 -6 6 -1 11 2
17 5 13 3 -3 4 -12 1 -19z"/>
<path d="M2750 7236 c0 -2 8 -10 18 -17 15 -13 16 -12 3 4 -13 16 -21 21 -21
13z"/>
<path d="M1646 7088 c3 -4 9 -8 15 -8 5 0 9 4 9 8 0 5 -7 9 -15 9 -8 0 -12 -4
-9 -9z"/>
<path d="M5962 7054 c-1 -19 2 -23 20 -21 12 2 28 15 36 28 13 23 13 23 -2 5
-11 -14 -16 -15 -16 -6 0 9 -5 8 -16 -6 -13 -16 -15 -16 -10 -2 3 10 2 19 -2
22 -4 2 -9 -6 -10 -20z"/>
<path d="M1773 6845 c0 -8 4 -12 9 -9 4 3 8 9 8 15 0 5 -4 9 -8 9 -5 0 -9 -7
-9 -15z"/>
<path d="M1703 6825 c0 -8 4 -12 9 -9 5 3 6 10 3 15 -9 13 -12 11 -12 -6z"/>
<path d="M1793 6784 c0 -9 4 -11 12 -4 7 5 14 9 16 7 2 -1 3 0 1 2 -7 11 -29
7 -29 -5z"/>
<path d="M6451 6751 c-9 -6 -10 -11 -2 -15 6 -4 8 -12 5 -18 -4 -6 -2 -8 4 -4
6 3 10 15 9 26 -1 11 -1 20 -2 20 0 0 -6 -4 -14 -9z"/>
<path d="M4975 6539 l-130 -127 60 -64 c95 -100 208 -209 216 -206 4 2 65 59
136 128 l130 125 -36 36 c-20 19 -83 80 -141 136 l-105 100 -130 -128z"/>
<path d="M4316 6377 c3 -10 9 -15 12 -12 3 3 0 11 -7 18 -10 9 -11 8 -5 -6z"/>
<path d="M4207 6343 c-3 -5 -4 -18 -2 -29 2 -10 4 -21 4 -23 1 -3 7 3 14 14
10 12 16 14 21 7 9 -15 26 -15 26 0 0 6 -3 8 -7 5 -3 -4 -17 2 -29 14 -12 11
-24 17 -27 12z"/>
<path d="M4320 6341 c0 -6 4 -13 10 -16 6 -3 7 1 4 9 -7 18 -14 21 -14 7z"/>
<path d="M4300 6324 c0 -20 27 -37 36 -23 4 7 3 9 -4 5 -6 -3 -15 2 -21 11 -6
10 -11 13 -11 7z"/>
<path d="M6289 6173 c-13 -16 -12 -17 4 -4 9 7 17 15 17 17 0 8 -8 3 -21 -13z"/>
<path d="M6265 6139 c-4 -6 -5 -12 -2 -15 2 -3 7 2 10 11 7 17 1 20 -8 4z"/>
<path d="M6224 6109 c-3 -6 -2 -15 3 -20 5 -5 9 -1 10 11 2 22 -2 25 -13 9z"/>
<path d="M6251 6064 c-14 -19 -24 -42 -24 -50 0 -12 -3 -12 -23 0 -19 13 -23
13 -37 -2 -8 -9 -12 -24 -10 -32 3 -11 2 -12 -4 -2 -7 9 -13 6 -22 -12 -8 -14
-19 -22 -27 -19 -14 5 -20 -12 -6 -20 4 -2 2 -3 -4 -1 -6 1 -17 -3 -24 -9 -7
-7 -5 0 5 16 9 15 24 27 31 27 8 0 14 4 14 8 0 4 16 25 35 46 19 21 35 33 35
27 0 -6 5 -11 11 -11 13 0 7 22 -8 27 -6 2 -43 -29 -82 -69 -53 -55 -69 -78
-65 -93 4 -16 3 -17 -5 -5 -8 12 -20 4 -68 -40 -109 -103 -155 -160 -143 -175
7 -8 10 -20 7 -27 -4 -9 -6 -7 -6 3 -1 9 -8 19 -16 23 -19 7 -19 -4 1 -32 8
-12 13 -28 11 -35 -3 -7 -6 -5 -6 6 -1 25 -26 21 -49 -8 -11 -13 -22 -21 -26
-18 -3 4 2 16 11 27 18 21 18 21 -4 2 -17 -14 -20 -22 -12 -32 12 -15 -5 -55
-22 -51 -6 1 -18 -9 -27 -23 -9 -14 -12 -22 -7 -18 4 4 15 2 23 -5 13 -9 14
-9 8 1 -4 6 -2 12 3 12 6 0 11 -5 11 -12 0 -6 6 -3 14 7 13 18 14 18 25 -3 7
-14 8 -23 1 -27 -6 -4 -8 -11 -4 -16 10 -17 23 1 18 26 -6 31 4 33 15 3 6 -15
5 -29 -3 -38 -9 -13 -9 -13 5 -3 9 7 20 9 25 5 4 -4 2 1 -5 10 -7 10 -10 26
-6 39 6 17 9 19 16 8 5 -8 9 -18 9 -24 0 -5 -5 -3 -10 5 -5 8 -10 10 -10 4 0
-6 7 -17 15 -24 8 -7 12 -17 8 -24 -3 -6 3 -2 15 8 12 11 22 17 23 15 0 -2 2
-12 4 -22 2 -13 -1 -17 -11 -13 -12 5 -14 1 -8 -16 5 -16 3 -20 -9 -15 -9 3
-14 0 -13 -11 0 -9 -4 -16 -11 -15 -6 1 -14 -4 -17 -12 -13 -34 20 -8 144 113
71 71 130 127 130 127 0 -1 62 61 138 138 75 77 159 161 186 188 29 28 43 49
35 49 -8 0 -20 -5 -27 -12 -8 -8 -12 -9 -12 -1 0 6 -8 10 -17 8 -10 -2 -22 -4
-27 -4 -4 -1 -6 -10 -3 -21 3 -11 1 -22 -3 -25 -4 -3 -7 9 -6 27 2 23 -4 39
-22 55 -14 12 -28 20 -33 18 -4 -3 -10 -1 -14 5 -3 5 -11 10 -17 10 -7 0 -6
-5 1 -14 8 -10 9 -16 1 -21 -6 -4 -10 -3 -9 2 3 20 -2 27 -11 13 -7 -12 -9
-10 -7 7 0 12 3 20 6 18 2 -3 10 0 18 6 10 9 13 8 13 -1 0 -8 3 -11 6 -7 3 3
3 11 -1 17 -5 8 -11 8 -21 -1 -19 -16 -18 0 3 23 9 10 14 20 12 22 -2 3 -15
-11 -28 -30z m58 -111 c-13 -15 2 -18 17 -3 7 7 11 6 11 -4 0 -8 -4 -13 -9
-10 -4 3 -8 0 -8 -7 0 -10 -3 -10 -12 -1 -17 17 -18 39 -2 39 10 0 11 -4 3
-14z m89 -30 c-10 -12 -13 -12 -20 1 -13 23 0 40 18 25 11 -9 12 -15 2 -26z
m-64 -18 c-4 -8 -1 -15 5 -15 6 0 11 -4 11 -10 0 -5 -4 -10 -9 -10 -12 0 -23
29 -15 41 9 14 14 10 8 -6z m-309 -58 c6 -4 3 -7 -7 -5 -10 2 -28 -10 -42 -27
-13 -16 -26 -28 -29 -25 -3 3 9 22 26 42 17 21 33 34 37 30 3 -4 10 -10 15
-15z m-111 -89 c-21 -26 -75 -78 -80 -78 -11 0 1 15 44 55 52 49 65 57 36 23z
m271 -36 c-3 -3 -11 0 -18 7 -9 10 -8 11 6 5 10 -3 15 -9 12 -12z m-382 -126
c-4 -5 -8 -21 -9 -34 -2 -19 0 -21 12 -11 8 6 14 8 14 4 0 -4 8 -1 18 6 15 12
16 12 5 -2 -7 -9 -10 -19 -6 -22 3 -4 13 -1 22 6 14 11 14 10 2 -5 -7 -10 -12
-18 -10 -19 26 -6 78 -4 92 3 20 10 23 -8 6 -32 -9 -13 -10 -12 -5 3 3 9 1 17
-4 17 -6 0 -10 -5 -10 -11 0 -5 -4 -7 -10 -4 -5 3 -10 1 -10 -5 0 -6 7 -13 15
-17 14 -5 14 -8 -1 -24 -9 -11 -22 -19 -27 -19 -6 0 -7 3 -4 7 4 3 2 12 -4 20
-9 10 -15 10 -25 2 -16 -13 -15 -15 -18 31 -1 22 -6 34 -14 33 -6 -2 -11 0 -9
5 1 4 -2 7 -8 7 -5 0 -9 -10 -9 -22 1 -14 -3 -20 -10 -15 -6 4 -14 7 -18 8 -5
1 -10 2 -13 3 -3 0 -1 10 5 22 7 11 9 23 7 26 -3 2 -11 -8 -19 -23 -12 -25
-58 -43 -58 -22 0 4 8 8 18 8 18 0 48 38 44 54 -2 5 4 4 12 -4 10 -7 16 -8 16
-2 0 6 -5 14 -10 17 -14 8 -5 22 14 22 8 0 12 -5 9 -11z"/>
<path d="M5780 5531 c0 -5 5 -13 10 -16 6 -3 10 -2 10 4 0 5 -4 13 -10 16 -5
3 -10 2 -10 -4z"/>
<path d="M5855 5484 c0 -17 3 -20 12 -12 7 6 10 15 6 21 -3 6 -1 7 6 3 6 -4 9
-11 6 -16 -3 -4 2 -13 9 -19 9 -8 16 -8 20 -2 4 5 1 13 -5 16 -5 4 -8 12 -6
19 3 8 -5 12 -22 12 -20 0 -26 -4 -26 -22z"/>
<path d="M6318 6082 c-11 -13 -11 -14 2 -7 21 14 71 15 63 2 -4 -6 -1 -7 6 -3
17 11 5 20 -29 22 -16 1 -35 -5 -42 -14z"/>
<path d="M6195 6080 c-3 -5 -1 -10 4 -10 6 0 11 5 11 10 0 6 -2 10 -4 10 -3 0
-8 -4 -11 -10z"/>
<path d="M6295 6045 c0 -13 2 -21 4 -19 2 2 10 -1 18 -7 7 -6 13 -8 13 -3 0 5
9 -4 20 -21 11 -16 20 -24 20 -17 0 7 4 11 9 8 5 -4 4 5 -2 19 -10 21 -13 22
-19 7 -6 -16 -7 -16 -7 1 -1 15 -12 22 -33 18 -5 0 -8 5 -8 13 0 8 -3 17 -7
19 -5 3 -8 -5 -8 -18z"/>
<path d="M6420 6041 c0 -5 5 -13 10 -16 6 -3 10 -2 10 4 0 5 -4 13 -10 16 -5
3 -10 2 -10 -4z"/>
<path d="M4036 5951 c-3 -5 2 -15 12 -22 15 -12 16 -12 5 2 -7 9 -10 19 -6 22
3 4 4 7 0 7 -3 0 -8 -4 -11 -9z"/>
<path d="M4096 5873 c-7 -35 -4 -57 12 -75 8 -10 9 -24 2 -47 -8 -28 -7 -31 5
-21 8 7 13 15 11 19 -2 3 0 15 5 26 7 15 8 12 5 -12 -2 -18 1 -36 6 -39 7 -4
8 -2 4 4 -4 7 -3 12 2 12 5 0 8 12 5 28 -3 23 -2 24 6 7 10 -21 10 -21 16 8 2
9 -1 15 -6 11 -8 -5 -13 10 -10 29 1 5 -3 6 -8 2 -6 -3 -7 -13 -4 -23 5 -14 4
-15 -8 -4 -11 10 -11 17 -2 31 10 15 9 22 -2 31 -18 15 -27 -1 -20 -37 5 -27
5 -27 -5 -4 -6 14 -8 37 -5 53 4 15 4 28 2 28 -3 0 -8 -12 -11 -27z m39 -22
c3 -5 1 -12 -5 -16 -5 -3 -10 1 -10 9 0 18 6 21 15 7z"/>
<path d="M1583 5858 c-4 -7 -6 -21 -5 -30 2 -9 -4 -28 -13 -41 -14 -22 -14
-26 2 -44 10 -10 14 -13 10 -7 -5 7 -3 23 4 36 7 13 12 29 10 36 -1 8 3 20 10
28 9 11 9 14 0 14 -7 0 -9 5 -6 10 3 6 4 10 1 10 -3 0 -8 -6 -13 -12z"/>
<path d="M1604 5802 c4 -11 2 -23 -3 -26 -5 -4 -8 -16 -6 -28 6 -27 18 -40 13
-13 -1 11 2 20 9 20 6 0 15 4 20 9 5 5 3 6 -4 2 -9 -5 -13 1 -13 18 0 14 -5
28 -11 32 -7 4 -9 0 -5 -14z"/>
<path d="M1675 5760 c6 -30 16 -40 12 -12 -2 12 -6 24 -10 28 -3 4 -4 -4 -2
-16z"/>
<path d="M1695 5719 c-4 -6 -5 -12 -2 -15 2 -3 7 2 10 11 7 17 1 20 -8 4z"/>
<path d="M4867 5720 c7 -8 20 -15 29 -16 9 -1 13 1 9 4 -4 4 -10 7 -13 7 -4 0
-14 4 -22 9 -12 7 -13 6 -3 -4z"/>
<path d="M1598 5699 c-4 -11 1 -15 16 -15 13 0 23 6 23 13 0 9 -4 10 -13 2 -8
-7 -13 -6 -16 3 -3 8 -6 8 -10 -3z"/>
<path d="M1720 5701 c0 -6 4 -13 10 -16 6 -3 7 1 4 9 -7 18 -14 21 -14 7z"/>
<path d="M5775 5650 c-3 -5 -1 -10 4 -10 6 0 11 5 11 10 0 6 -2 10 -4 10 -3 0
-8 -4 -11 -10z"/>
<path d="M5103 5625 c0 -8 4 -12 9 -9 5 3 6 10 3 15 -9 13 -12 11 -12 -6z"/>
<path d="M4995 5608 c14 -11 29 -18 32 -14 4 3 1 6 -5 6 -7 0 -12 6 -12 13 0
7 -9 13 -21 14 -18 2 -18 0 6 -19z"/>
<path d="M5109 5597 c-14 -11 -14 -14 -2 -26 12 -11 14 -10 11 5 -2 12 2 18
10 16 8 -1 11 2 7 8 -7 12 -6 12 -26 -3z"/>
<path d="M5036 5567 c3 -10 9 -15 12 -12 3 3 0 11 -7 18 -10 9 -11 8 -5 -6z"/>
<path d="M5068 5568 c8 -10 9 -17 3 -20 -6 -1 1 -16 15 -33 25 -29 25 -29 10
-3 -20 34 -20 39 1 31 23 -9 8 14 -20 29 -19 10 -20 9 -9 -4z"/>
<path d="M1477 5503 c-4 -3 -7 -11 -7 -16 0 -6 3 -7 7 -4 3 4 13 1 22 -6 14
-11 15 -10 1 8 -8 11 -15 21 -16 23 0 1 -4 -1 -7 -5z"/>
<path d="M1547 5493 c-10 -9 -9 -23 1 -23 5 0 9 7 9 15 0 17 -1 18 -10 8z"/>
<path d="M1357 5419 c4 -13 8 -18 11 -10 2 7 -1 18 -6 23 -8 8 -9 4 -5 -13z"/>
<path d="M8800 5436 c0 -2 7 -7 16 -10 8 -3 12 -2 9 4 -6 10 -25 14 -25 6z"/>
<path d="M1480 5416 c0 -2 8 -10 18 -17 15 -13 16 -12 3 4 -13 16 -21 21 -21
13z"/>
<path d="M5793 5404 c-3 -8 -1 -20 5 -26 8 -8 9 -4 5 12 -5 17 -3 21 7 15 9
-5 11 -4 6 3 -10 16 -15 15 -23 -4z"/>
<path d="M8689 5408 c-5 -12 -5 -57 0 -52 3 3 6 11 6 17 1 7 7 11 15 9 11 -3
11 0 0 12 -12 15 -19 19 -21 14z"/>
<path d="M8806 5397 c3 -10 9 -15 12 -12 3 3 0 11 -7 18 -10 9 -11 8 -5 -6z"/>
<path d="M1643 5385 c0 -8 4 -12 9 -9 5 3 6 10 3 15 -9 13 -12 11 -12 -6z"/>
<path d="M1553 5375 c0 -8 4 -12 9 -9 5 3 6 10 3 15 -9 13 -12 11 -12 -6z"/>
<path d="M1390 5340 c6 -11 13 -20 16 -20 2 0 0 9 -6 20 -6 11 -13 20 -16 20
-2 0 0 -9 6 -20z"/>
<path d="M5225 5319 c-4 -6 -5 -12 -2 -15 2 -3 7 2 10 11 7 17 1 20 -8 4z"/>
<path d="M5789 5313 c-13 -16 -12 -17 4 -4 16 13 21 21 13 21 -2 0 -10 -8 -17
-17z"/>
<path d="M6896 5242 c-3 -5 1 -9 9 -9 8 0 12 4 9 9 -3 4 -7 8 -9 8 -2 0 -6 -4
-9 -8z"/>
<path d="M6079 5143 c-13 -16 -12 -17 4 -4 9 7 17 15 17 17 0 8 -8 3 -21 -13z"/>
<path d="M3573 5083 c-7 -2 -13 -11 -13 -19 0 -7 6 -11 13 -8 8 3 14 11 14 19
0 8 -1 15 -1 14 -1 0 -7 -3 -13 -6z"/>
<path d="M4306 5074 c-3 -9 -4 -19 -1 -22 3 -3 5 1 5 9 1 10 4 9 14 -4 11 -14
15 -15 19 -4 3 8 1 20 -4 28 -7 12 -9 12 -9 -1 0 -12 -2 -12 -9 -2 -6 11 -10
10 -15 -4z"/>
<path d="M8337 5016 c-3 -8 2 -20 11 -28 15 -11 15 -11 5 3 -10 12 -10 18 -1
27 8 8 9 12 1 12 -6 0 -13 -6 -16 -14z"/>
<path d="M6000 5001 c0 -6 4 -13 10 -16 6 -3 7 1 4 9 -7 18 -14 21 -14 7z"/>
<path d="M3900 4951 c0 -10 26 -9 36 2 4 4 -2 7 -14 7 -12 0 -22 -4 -22 -9z"/>
<path d="M8365 4939 c-4 -6 -5 -12 -2 -15 2 -3 7 2 10 11 7 17 1 20 -8 4z"/>
<path d="M8386 4932 c-3 -5 1 -9 9 -9 8 0 12 4 9 9 -3 4 -7 8 -9 8 -2 0 -6 -4
-9 -8z"/>
<path d="M4100 4894 c0 -8 5 -12 10 -9 6 4 8 11 5 16 -9 14 -15 11 -15 -7z"/>
<path d="M7425 4900 c-4 -6 -4 -14 -1 -17 3 -4 6 -1 6 7 0 10 3 10 14 1 11 -9
16 -9 22 1 4 7 4 10 -1 6 -4 -4 -14 -3 -21 3 -8 7 -14 7 -19 -1z"/>
<path d="M8370 4901 c0 -5 9 -7 20 -4 11 3 20 7 20 9 0 2 -9 4 -20 4 -11 0
-20 -4 -20 -9z"/>
<path d="M3936 4882 c-3 -5 1 -9 9 -9 8 0 12 4 9 9 -3 4 -7 8 -9 8 -2 0 -6 -4
-9 -8z"/>
<path d="M4647 4853 c-4 -3 -7 -11 -7 -17 0 -6 5 -5 12 2 6 6 9 14 7 17 -3 3
-9 2 -12 -2z"/>
<path d="M3920 4840 c0 -6 5 -10 11 -10 5 0 8 -4 4 -9 -3 -5 -2 -12 3 -15 4
-2 8 4 9 14 1 10 -5 21 -13 24 -8 3 -14 1 -14 -4z"/>
<path d="M4617 4828 c-4 -12 -4 -24 -2 -27 3 -2 5 1 5 8 0 7 4 10 9 7 5 -4 7
3 4 14 -7 25 -9 25 -16 -2z"/>
<path d="M3766 4823 c-6 -14 -5 -15 5 -6 7 7 10 15 7 18 -3 3 -9 -2 -12 -12z"/>
<path d="M5249 4833 c0 -5 -2 -16 -4 -25 -2 -10 0 -18 5 -18 4 0 8 11 8 25 0
22 -7 36 -9 18z"/>
<path d="M4917 4755 c-4 -8 -3 -16 1 -19 4 -3 9 4 9 15 2 23 -3 25 -10 4z"/>
<path d="M5140 4685 c-13 -14 -22 -27 -19 -29 2 -2 14 10 27 25 29 36 24 38
-8 4z"/>
<path d="M7923 4655 c0 -8 4 -12 9 -9 5 3 6 10 3 15 -9 13 -12 11 -12 -6z"/>
<path d="M2037 4587 c-3 -8 3 -14 16 -15 12 0 17 2 12 6 -6 4 -13 11 -16 15
-4 4 -9 2 -12 -6z"/>
<path d="M1985 4500 c3 -5 8 -10 11 -10 2 0 4 5 4 10 0 6 -5 10 -11 10 -5 0
-7 -4 -4 -10z"/>
<path d="M7685 4411 c-3 -5 -1 -12 5 -16 5 -3 10 1 10 9 0 18 -6 21 -15 7z"/>
<path d="M7716 4398 c3 -5 10 -6 15 -3 13 9 11 12 -6 12 -8 0 -12 -4 -9 -9z"/>
<path d="M3045 4160 c-4 -6 -11 -7 -17 -4 -7 4 -8 2 -4 -5 6 -9 11 -9 22 0 14
11 18 19 10 19 -3 0 -8 -5 -11 -10z"/>
<path d="M3003 4141 c0 -11 5 -18 9 -15 4 3 5 11 1 19 -7 21 -12 19 -10 -4z"/>
<path d="M7383 3855 c0 -8 4 -12 9 -9 5 3 6 10 3 15 -9 13 -12 11 -12 -6z"/>
<path d="M7317 3818 c-5 -18 -4 -19 12 -4 10 9 20 15 22 14 2 -2 3 -1 1 1 -8
14 -31 6 -35 -11z"/>
<path d="M7205 3641 c-15 -17 -15 -19 -1 -17 22 3 40 22 28 30 -5 3 -17 -3
-27 -13z"/>
<path d="M6905 3069 c-4 -6 -5 -12 -2 -15 2 -3 7 2 10 11 7 17 1 20 -8 4z"/>
<path d="M6630 2763 l-65 -68 68 65 c37 35 67 66 67 67 0 8 -10 -2 -70 -64z"/>
<path d="M6500 2753 c0 -12 28 -38 34 -32 2 2 -5 13 -15 23 -11 11 -19 15 -19
9z"/>
</g>
</svg>
